<svg width="49px" height="49px" viewBox="0 0 48 49" fill="none" xmlns="http://www.w3.org/2000/svg"><g opacity="0.6" fill="#5E6976" clip-path="url(#adulthood_svg__a)"><path d="M40.207 34.278c-.495 0-.958.244-1.237.654-3.546 5.219-9.529 8.652-16.298 8.652-10.856 0-19.69-8.833-19.69-19.69 0-10.856 8.834-19.69 19.69-19.69 6.771 0 12.754 3.434 16.298 8.653.278.41.74.654 1.237.654 1.198 0 1.913-1.34 1.24-2.33a22.895 22.895 0 0 0-2.743-3.318 22.592 22.592 0 0 0-7.206-4.858 22.544 22.544 0 0 0-8.826-1.783c-3.06 0-6.03.6-8.825 1.783A22.59 22.59 0 0 0 6.64 7.863a22.591 22.591 0 0 0-4.858 7.206A22.543 22.543 0 0 0 0 23.894c0 3.06.599 6.03 1.783 8.826a22.59 22.59 0 0 0 4.858 7.206 22.592 22.592 0 0 0 7.206 4.858 22.544 22.544 0 0 0 8.825 1.783c3.06 0 6.03-.6 8.826-1.783a22.593 22.593 0 0 0 7.206-4.858 22.673 22.673 0 0 0 2.744-3.317c.672-.991-.043-2.33-1.241-2.33Z"></path><path d="M44.03 22.068v-3.971h-3.654v3.971h-3.97v3.653h3.97v3.971h3.655v-3.971H48v-3.653h-3.97ZM10.655 16.133l3.476-2.041h3.508v19.607h-3.713V18.682l-3.328 1.308.057-3.857ZM32.339 23.073c.886.57 1.572 1.3 2.055 2.193.482.892.724 1.86.724 2.9a6.06 6.06 0 0 1-.847 3.132c-.565.959-1.323 1.682-2.275 2.167-.951.484-2.167.726-3.644.726-1.584 0-2.843-.232-3.777-.699-.933-.467-1.682-1.172-2.242-2.12-.561-.945-.84-2.015-.84-3.205 0-1.03.224-1.97.675-2.819.45-.849 1.125-1.605 2.025-2.273-.587-.595-1.028-1.227-1.326-1.9a5.187 5.187 0 0 1-.447-2.125c0-1.022.246-1.952.74-2.791a5.113 5.113 0 0 1 2.075-1.958c.89-.467 1.917-.7 3.083-.7 1.147 0 2.157.237 3.028.706a5.203 5.203 0 0 1 2.062 2.005c.505.867.755 1.797.755 2.791 0 .702-.13 1.354-.392 1.953s-.739 1.27-1.432 2.017Zm-3.993 1.996c-.9 0-1.657.273-2.272.82-.614.545-.922 1.197-.922 1.951 0 .792.29 1.46.87 2.006.578.545 1.34.82 2.284.82.954 0 1.712-.257 2.28-.767.565-.51.849-1.17.849-1.98 0-.808-.294-1.485-.883-2.033-.589-.544-1.324-.817-2.206-.817Zm-.168-7.864c-.61 0-1.113.2-1.507.604-.394.404-.59.918-.59 1.547 0 .628.206 1.156.624 1.58.415.425.93.638 1.54.638.629 0 1.145-.207 1.547-.625.402-.415.604-.955.604-1.619 0-.628-.202-1.14-.61-1.534-.408-.395-.944-.591-1.608-.591Z"></path></g><defs><clipPath id="adulthood_svg__a"><path fill="#fff" transform="translate(0 .222)" d="M0 0h48v48H0z"></path></clipPath></defs></svg>