<svg width="134px" height="40px" viewBox="0 0 134 40" fill="none" xmlns="http://www.w3.org/2000/svg"><rect x="0.654" y="0.5" width="132.846" height="39" rx="7.5" fill="#000"></rect><path fill-rule="evenodd" clip-rule="evenodd" d="M30.041 16.428c.86.449 1.658.998 2.375 1.637.718.64 1.35 1.362 1.882 2.151.532.79.96 1.639 1.272 2.53.313.891.51 1.817.584 2.754h-24a11 11 0 0 1 .59-2.756c.314-.891.742-1.741 1.275-2.53a11.413 11.413 0 0 1 1.883-2.154 11.816 11.816 0 0 1 2.375-1.642l-1.996-3.326a.385.385 0 0 1-.038-.301c.03-.102.1-.188.196-.24a.425.425 0 0 1 .563.15l2.027 3.365a13.019 13.019 0 0 1 2.512-.792 12.988 12.988 0 0 1 2.628-.263 12.854 12.854 0 0 1 2.625.265 12.626 12.626 0 0 1 2.506.8l2.027-3.366a.426.426 0 0 1 .565-.153c.096.053.166.14.195.242a.386.386 0 0 1-.04.303l-2.005 3.326ZM19.026 22.14c.122-.048.233-.12.326-.209a.955.955 0 0 0 .293-.682.966.966 0 0 0-.62-.891 1.033 1.033 0 0 0-1.092.209.938.938 0 0 0-.217 1.05c.155.362.52.597.926.597.132 0 .263-.025.384-.074Zm11.044 0c.122-.048.233-.12.326-.209a.958.958 0 0 0 .293-.682.966.966 0 0 0-.62-.891 1.033 1.033 0 0 0-1.092.209.938.938 0 0 0-.218 1.05c.156.362.522.597.927.597.132 0 .263-.025.384-.074Z" fill="#fff"></path><mask id="android-download_svg__a" maskUnits="userSpaceOnUse" x="47.154" y="4" width="66" height="12" fill="#000"><path fill="#fff" d="M47.154 4h66v12h-66z"></path><path d="M53.324 10.643h1.07a3.411 3.411 0 0 1-.44 1.377 2.573 2.573 0 0 1-1.009.963c-.435.234-.977.351-1.627.351-.475 0-.908-.089-1.298-.267a2.884 2.884 0 0 1-.997-.758 3.546 3.546 0 0 1-.646-1.186 5.067 5.067 0 0 1-.223-1.55v-.807c0-.568.074-1.083.223-1.543.152-.464.37-.862.651-1.192.287-.33.63-.585 1.031-.764A3.299 3.299 0 0 1 51.413 5c.613 0 1.13.115 1.554.345.424.23.752.55.986.959.238.404.385.874.44 1.41h-1.07a2.982 2.982 0 0 0-.289-.976 1.506 1.506 0 0 0-.602-.635c-.26-.148-.6-.223-1.02-.223-.36 0-.677.069-.952.206-.27.138-.5.333-.685.585-.182.253-.32.556-.412.908-.093.353-.14.745-.14 1.176v.819c0 .397.041.77.123 1.12.086.349.214.655.385.919.17.264.388.472.651.624.264.148.576.223.936.223.457 0 .821-.073 1.092-.218.271-.145.476-.353.613-.624a3.17 3.17 0 0 0 .3-.975ZM56.822 7.195v6.028h-1.03V7.195h1.03Zm3.956 0-2.858 3.454h-1.443l-.156-.902h1.181l2.022-2.552h1.254Zm-1.109 6.028-2.217-2.73.663-.746 2.863 3.476H59.67ZM65.43 12.192V9.09c0-.238-.049-.444-.145-.618a.948.948 0 0 0-.424-.412 1.535 1.535 0 0 0-.702-.145c-.26 0-.488.044-.685.133-.193.09-.345.206-.457.351a.77.77 0 0 0-.161.468h-1.03c0-.215.055-.429.166-.64.112-.212.271-.403.48-.574.211-.175.464-.312.757-.412.297-.104.628-.156.992-.156.438 0 .824.074 1.158.222.338.149.602.374.792.675.193.297.29.67.29 1.12v2.807c0 .2.016.414.05.64.037.227.09.422.161.586v.089h-1.075a1.924 1.924 0 0 1-.123-.474c-.03-.2-.044-.386-.044-.557Zm.178-2.624.011.725h-1.042c-.293 0-.555.024-.785.072-.23.044-.424.113-.58.206a.98.98 0 0 0-.356.351.93.93 0 0 0-.123.485c0 .19.043.362.128.518.086.156.214.28.385.373.174.09.388.134.64.134.316 0 .595-.067.836-.2.242-.134.433-.298.574-.491.145-.193.223-.38.234-.563l.44.496a1.495 1.495 0 0 1-.212.518 2.476 2.476 0 0 1-1.142.975c-.26.112-.553.167-.88.167-.408 0-.767-.08-1.075-.24a1.84 1.84 0 0 1-.713-.64 1.696 1.696 0 0 1-.251-.908c0-.323.063-.607.19-.852.126-.25.308-.455.545-.619.238-.167.524-.293.858-.379a4.525 4.525 0 0 1 1.12-.128h1.198ZM72.627 7.195v6.028h-1.03V7.195h1.03Zm-.35 2.769v.847c-.209.078-.42.148-.636.211-.211.06-.436.108-.674.145-.234.034-.488.05-.763.05-.475 0-.888-.081-1.237-.245a1.8 1.8 0 0 1-.808-.752c-.189-.338-.284-.763-.284-1.276v-1.76h1.031v1.76c0 .335.05.606.15.814.1.208.247.362.44.462.194.097.43.145.708.145.267 0 .518-.017.752-.05a6.11 6.11 0 0 0 .68-.145c.219-.06.432-.128.64-.206ZM77.842 12.192V9.09c0-.238-.048-.444-.145-.618a.947.947 0 0 0-.423-.412 1.534 1.534 0 0 0-.702-.145c-.26 0-.489.044-.686.133-.193.09-.345.206-.456.351a.77.77 0 0 0-.162.468h-1.03c0-.215.055-.429.167-.64.111-.212.27-.403.479-.574.211-.175.464-.312.757-.412.297-.104.628-.156.992-.156.438 0 .825.074 1.159.222.338.149.601.374.79.675.194.297.29.67.29 1.12v2.807c0 .2.017.414.05.64.038.227.092.422.162.586v.089H78.01a1.924 1.924 0 0 1-.123-.474c-.03-.2-.044-.386-.044-.557Zm.178-2.624.011.725H76.99c-.294 0-.556.024-.786.072-.23.044-.423.113-.58.206a.98.98 0 0 0-.356.351.93.93 0 0 0-.123.485c0 .19.043.362.129.518.085.156.213.28.384.373.175.09.388.134.64.134.316 0 .595-.067.836-.2.242-.134.433-.298.574-.491.145-.193.223-.38.234-.563l.44.496a1.497 1.497 0 0 1-.211.518 2.479 2.479 0 0 1-1.143.975c-.26.112-.553.167-.88.167-.408 0-.767-.08-1.075-.24a1.838 1.838 0 0 1-.713-.64 1.696 1.696 0 0 1-.25-.908c0-.323.062-.607.189-.852.126-.25.308-.455.546-.619.237-.167.523-.293.858-.379a4.526 4.526 0 0 1 1.12-.128h1.197ZM82.861 7.195v6.028h-1.036V7.195h1.036Zm2.023 0v.836h-5.042v-.836h5.042ZM86.744 9.267h1.811c.486 0 .897.086 1.231.257.334.167.587.399.758.696.174.293.262.628.262 1.003 0 .278-.049.54-.145.785a1.764 1.764 0 0 1-.435.636c-.19.181-.425.324-.707.428-.279.1-.6.15-.964.15h-2.563V7.196h1.031v5.181h1.532c.297 0 .535-.054.713-.162a.943.943 0 0 0 .385-.417 1.274 1.274 0 0 0 0-1.07 1 1 0 0 0-.385-.434c-.178-.12-.416-.179-.713-.179h-1.81v-.847ZM96.009 7.195h1.03l-.088 2.256a7.066 7.066 0 0 1-.195 1.482c-.108.416-.246.77-.413 1.064-.167.29-.354.533-.562.73a3.681 3.681 0 0 1-.636.496h-.512l.028-.841.212-.006c.122-.145.24-.293.356-.446.115-.156.221-.34.318-.551.096-.216.176-.477.24-.786.066-.312.109-.692.127-1.142l.095-2.256Zm.256 0h3.627v6.028h-1.03V8.148h-2.597v-.953ZM94.4 12.376h6.267V15h-1.03v-1.777H95.43V15h-1.037l.006-2.624ZM105.836 7.195v.852h-2.913v-.852h2.913Zm.908 0v6.028h-1.03V7.195h1.03Zm-4.072 0h1.036l-.156 2.908c-.026.45-.069.847-.128 1.192a4.1 4.1 0 0 1-.234.88 1.82 1.82 0 0 1-.368.602 1.341 1.341 0 0 1-.523.34c-.205.07-.44.106-.708.106h-.323v-.908l.223-.017a.953.953 0 0 0 .407-.111.797.797 0 0 0 .289-.279c.078-.126.141-.288.19-.485a4.44 4.44 0 0 0 .117-.702c.029-.27.052-.586.067-.947l.111-2.579ZM109.625 10.348h1.114l-1.744 2.875h-1.114l1.744-2.875Zm.863-3.153h2.518v6.028h-1.03V8.03h-1.488c-.293 0-.533.05-.719.15a.94.94 0 0 0-.406.379.99.99 0 0 0-.011.958.92.92 0 0 0 .367.368c.167.096.383.145.647.145h1.888v.846h-1.888c-.346 0-.652-.046-.92-.139a2.011 2.011 0 0 1-.679-.384 1.681 1.681 0 0 1-.424-.585 1.866 1.866 0 0 1-.145-.736c0-.263.051-.507.151-.73.104-.222.252-.417.446-.584a2.04 2.04 0 0 1 .718-.385c.286-.093.611-.139.975-.139Z"></path></mask><path d="M53.324 10.643h1.07a3.411 3.411 0 0 1-.44 1.377 2.573 2.573 0 0 1-1.009.963c-.435.234-.977.351-1.627.351-.475 0-.908-.089-1.298-.267a2.884 2.884 0 0 1-.997-.758 3.546 3.546 0 0 1-.646-1.186 5.067 5.067 0 0 1-.223-1.55v-.807c0-.568.074-1.083.223-1.543.152-.464.37-.862.651-1.192.287-.33.63-.585 1.031-.764A3.299 3.299 0 0 1 51.413 5c.613 0 1.13.115 1.554.345.424.23.752.55.986.959.238.404.385.874.44 1.41h-1.07a2.982 2.982 0 0 0-.289-.976 1.506 1.506 0 0 0-.602-.635c-.26-.148-.6-.223-1.02-.223-.36 0-.677.069-.952.206-.27.138-.5.333-.685.585-.182.253-.32.556-.412.908-.093.353-.14.745-.14 1.176v.819c0 .397.041.77.123 1.12.086.349.214.655.385.919.17.264.388.472.651.624.264.148.576.223.936.223.457 0 .821-.073 1.092-.218.271-.145.476-.353.613-.624a3.17 3.17 0 0 0 .3-.975ZM56.822 7.195v6.028h-1.03V7.195h1.03Zm3.956 0-2.858 3.454h-1.443l-.156-.902h1.181l2.022-2.552h1.254Zm-1.109 6.028-2.217-2.73.663-.746 2.863 3.476H59.67ZM65.43 12.192V9.09c0-.238-.049-.444-.145-.618a.948.948 0 0 0-.424-.412 1.535 1.535 0 0 0-.702-.145c-.26 0-.488.044-.685.133-.193.09-.345.206-.457.351a.77.77 0 0 0-.161.468h-1.03c0-.215.055-.429.166-.64.112-.212.271-.403.48-.574.211-.175.464-.312.757-.412.297-.104.628-.156.992-.156.438 0 .824.074 1.158.222.338.149.602.374.792.675.193.297.29.67.29 1.12v2.807c0 .2.016.414.05.64.037.227.09.422.161.586v.089h-1.075a1.924 1.924 0 0 1-.123-.474c-.03-.2-.044-.386-.044-.557Zm.178-2.624.011.725h-1.042c-.293 0-.555.024-.785.072-.23.044-.424.113-.58.206a.98.98 0 0 0-.356.351.93.93 0 0 0-.123.485c0 .19.043.362.128.518.086.156.214.28.385.373.174.09.388.134.64.134.316 0 .595-.067.836-.2.242-.134.433-.298.574-.491.145-.193.223-.38.234-.563l.44.496a1.495 1.495 0 0 1-.212.518 2.476 2.476 0 0 1-1.142.975c-.26.112-.553.167-.88.167-.408 0-.767-.08-1.075-.24a1.84 1.84 0 0 1-.713-.64 1.696 1.696 0 0 1-.251-.908c0-.323.063-.607.19-.852.126-.25.308-.455.545-.619.238-.167.524-.293.858-.379a4.525 4.525 0 0 1 1.12-.128h1.198ZM72.627 7.195v6.028h-1.03V7.195h1.03Zm-.35 2.769v.847c-.209.078-.42.148-.636.211-.211.06-.436.108-.674.145-.234.034-.488.05-.763.05-.475 0-.888-.081-1.237-.245a1.8 1.8 0 0 1-.808-.752c-.189-.338-.284-.763-.284-1.276v-1.76h1.031v1.76c0 .335.05.606.15.814.1.208.247.362.44.462.194.097.43.145.708.145.267 0 .518-.017.752-.05a6.11 6.11 0 0 0 .68-.145c.219-.06.432-.128.64-.206ZM77.842 12.192V9.09c0-.238-.048-.444-.145-.618a.947.947 0 0 0-.423-.412 1.534 1.534 0 0 0-.702-.145c-.26 0-.489.044-.686.133-.193.09-.345.206-.456.351a.77.77 0 0 0-.162.468h-1.03c0-.215.055-.429.167-.64.111-.212.27-.403.479-.574.211-.175.464-.312.757-.412.297-.104.628-.156.992-.156.438 0 .825.074 1.159.222.338.149.601.374.79.675.194.297.29.67.29 1.12v2.807c0 .2.017.414.05.64.038.227.092.422.162.586v.089H78.01a1.924 1.924 0 0 1-.123-.474c-.03-.2-.044-.386-.044-.557Zm.178-2.624.011.725H76.99c-.294 0-.556.024-.786.072-.23.044-.423.113-.58.206a.98.98 0 0 0-.356.351.93.93 0 0 0-.123.485c0 .19.043.362.129.518.085.156.213.28.384.373.175.09.388.134.64.134.316 0 .595-.067.836-.2.242-.134.433-.298.574-.491.145-.193.223-.38.234-.563l.44.496a1.497 1.497 0 0 1-.211.518 2.479 2.479 0 0 1-1.143.975c-.26.112-.553.167-.88.167-.408 0-.767-.08-1.075-.24a1.838 1.838 0 0 1-.713-.64 1.696 1.696 0 0 1-.25-.908c0-.323.062-.607.189-.852.126-.25.308-.455.546-.619.237-.167.523-.293.858-.379a4.526 4.526 0 0 1 1.12-.128h1.197ZM82.861 7.195v6.028h-1.036V7.195h1.036Zm2.023 0v.836h-5.042v-.836h5.042ZM86.744 9.267h1.811c.486 0 .897.086 1.231.257.334.167.587.399.758.696.174.293.262.628.262 1.003 0 .278-.049.54-.145.785a1.764 1.764 0 0 1-.435.636c-.19.181-.425.324-.707.428-.279.1-.6.15-.964.15h-2.563V7.196h1.031v5.181h1.532c.297 0 .535-.054.713-.162a.943.943 0 0 0 .385-.417 1.274 1.274 0 0 0 0-1.07 1 1 0 0 0-.385-.434c-.178-.12-.416-.179-.713-.179h-1.81v-.847ZM96.009 7.195h1.03l-.088 2.256a7.066 7.066 0 0 1-.195 1.482c-.108.416-.246.77-.413 1.064-.167.29-.354.533-.562.73a3.681 3.681 0 0 1-.636.496h-.512l.028-.841.212-.006c.122-.145.24-.293.356-.446.115-.156.221-.34.318-.551.096-.216.176-.477.24-.786.066-.312.109-.692.127-1.142l.095-2.256Zm.256 0h3.627v6.028h-1.03V8.148h-2.597v-.953ZM94.4 12.376h6.267V15h-1.03v-1.777H95.43V15h-1.037l.006-2.624ZM105.836 7.195v.852h-2.913v-.852h2.913Zm.908 0v6.028h-1.03V7.195h1.03Zm-4.072 0h1.036l-.156 2.908c-.026.45-.069.847-.128 1.192a4.1 4.1 0 0 1-.234.88 1.82 1.82 0 0 1-.368.602 1.341 1.341 0 0 1-.523.34c-.205.07-.44.106-.708.106h-.323v-.908l.223-.017a.953.953 0 0 0 .407-.111.797.797 0 0 0 .289-.279c.078-.126.141-.288.19-.485a4.44 4.44 0 0 0 .117-.702c.029-.27.052-.586.067-.947l.111-2.579ZM109.625 10.348h1.114l-1.744 2.875h-1.114l1.744-2.875Zm.863-3.153h2.518v6.028h-1.03V8.03h-1.488c-.293 0-.533.05-.719.15a.94.94 0 0 0-.406.379.99.99 0 0 0-.011.958.92.92 0 0 0 .367.368c.167.096.383.145.647.145h1.888v.846h-1.888c-.346 0-.652-.046-.92-.139a2.011 2.011 0 0 1-.679-.384 1.681 1.681 0 0 1-.424-.585 1.866 1.866 0 0 1-.145-.736c0-.263.051-.507.151-.73.104-.222.252-.417.446-.584a2.04 2.04 0 0 1 .718-.385c.286-.093.611-.139.975-.139Z" fill="#fff"></path><path d="M53.324 10.643h1.07a3.411 3.411 0 0 1-.44 1.377 2.573 2.573 0 0 1-1.009.963c-.435.234-.977.351-1.627.351-.475 0-.908-.089-1.298-.267a2.884 2.884 0 0 1-.997-.758 3.546 3.546 0 0 1-.646-1.186 5.067 5.067 0 0 1-.223-1.55v-.807c0-.568.074-1.083.223-1.543.152-.464.37-.862.651-1.192.287-.33.63-.585 1.031-.764A3.299 3.299 0 0 1 51.413 5c.613 0 1.13.115 1.554.345.424.23.752.55.986.959.238.404.385.874.44 1.41h-1.07a2.982 2.982 0 0 0-.289-.976 1.506 1.506 0 0 0-.602-.635c-.26-.148-.6-.223-1.02-.223-.36 0-.677.069-.952.206-.27.138-.5.333-.685.585-.182.253-.32.556-.412.908-.093.353-.14.745-.14 1.176v.819c0 .397.041.77.123 1.12.086.349.214.655.385.919.17.264.388.472.651.624.264.148.576.223.936.223.457 0 .821-.073 1.092-.218.271-.145.476-.353.613-.624a3.17 3.17 0 0 0 .3-.975ZM56.822 7.195v6.028h-1.03V7.195h1.03Zm3.956 0-2.858 3.454h-1.443l-.156-.902h1.181l2.022-2.552h1.254Zm-1.109 6.028-2.217-2.73.663-.746 2.863 3.476H59.67ZM65.43 12.192V9.09c0-.238-.049-.444-.145-.618a.948.948 0 0 0-.424-.412 1.535 1.535 0 0 0-.702-.145c-.26 0-.488.044-.685.133-.193.09-.345.206-.457.351a.77.77 0 0 0-.161.468h-1.03c0-.215.055-.429.166-.64.112-.212.271-.403.48-.574.211-.175.464-.312.757-.412.297-.104.628-.156.992-.156.438 0 .824.074 1.158.222.338.149.602.374.792.675.193.297.29.67.29 1.12v2.807c0 .2.016.414.05.64.037.227.09.422.161.586v.089h-1.075a1.924 1.924 0 0 1-.123-.474c-.03-.2-.044-.386-.044-.557Zm.178-2.624.011.725h-1.042c-.293 0-.555.024-.785.072-.23.044-.424.113-.58.206a.98.98 0 0 0-.356.351.93.93 0 0 0-.123.485c0 .19.043.362.128.518.086.156.214.28.385.373.174.09.388.134.64.134.316 0 .595-.067.836-.2.242-.134.433-.298.574-.491.145-.193.223-.38.234-.563l.44.496a1.495 1.495 0 0 1-.212.518 2.476 2.476 0 0 1-1.142.975c-.26.112-.553.167-.88.167-.408 0-.767-.08-1.075-.24a1.84 1.84 0 0 1-.713-.64 1.696 1.696 0 0 1-.251-.908c0-.323.063-.607.19-.852.126-.25.308-.455.545-.619.238-.167.524-.293.858-.379a4.525 4.525 0 0 1 1.12-.128h1.198ZM72.627 7.195v6.028h-1.03V7.195h1.03Zm-.35 2.769v.847c-.209.078-.42.148-.636.211-.211.06-.436.108-.674.145-.234.034-.488.05-.763.05-.475 0-.888-.081-1.237-.245a1.8 1.8 0 0 1-.808-.752c-.189-.338-.284-.763-.284-1.276v-1.76h1.031v1.76c0 .335.05.606.15.814.1.208.247.362.44.462.194.097.43.145.708.145.267 0 .518-.017.752-.05a6.11 6.11 0 0 0 .68-.145c.219-.06.432-.128.64-.206ZM77.842 12.192V9.09c0-.238-.048-.444-.145-.618a.947.947 0 0 0-.423-.412 1.534 1.534 0 0 0-.702-.145c-.26 0-.489.044-.686.133-.193.09-.345.206-.456.351a.77.77 0 0 0-.162.468h-1.03c0-.215.055-.429.167-.64.111-.212.27-.403.479-.574.211-.175.464-.312.757-.412.297-.104.628-.156.992-.156.438 0 .825.074 1.159.222.338.149.601.374.79.675.194.297.29.67.29 1.12v2.807c0 .2.017.414.05.64.038.227.092.422.162.586v.089H78.01a1.924 1.924 0 0 1-.123-.474c-.03-.2-.044-.386-.044-.557Zm.178-2.624.011.725H76.99c-.294 0-.556.024-.786.072-.23.044-.423.113-.58.206a.98.98 0 0 0-.356.351.93.93 0 0 0-.123.485c0 .19.043.362.129.518.085.156.213.28.384.373.175.09.388.134.64.134.316 0 .595-.067.836-.2.242-.134.433-.298.574-.491.145-.193.223-.38.234-.563l.44.496a1.497 1.497 0 0 1-.211.518 2.479 2.479 0 0 1-1.143.975c-.26.112-.553.167-.88.167-.408 0-.767-.08-1.075-.24a1.838 1.838 0 0 1-.713-.64 1.696 1.696 0 0 1-.25-.908c0-.323.062-.607.189-.852.126-.25.308-.455.546-.619.237-.167.523-.293.858-.379a4.526 4.526 0 0 1 1.12-.128h1.197ZM82.861 7.195v6.028h-1.036V7.195h1.036Zm2.023 0v.836h-5.042v-.836h5.042ZM86.744 9.267h1.811c.486 0 .897.086 1.231.257.334.167.587.399.758.696.174.293.262.628.262 1.003 0 .278-.049.54-.145.785a1.764 1.764 0 0 1-.435.636c-.19.181-.425.324-.707.428-.279.1-.6.15-.964.15h-2.563V7.196h1.031v5.181h1.532c.297 0 .535-.054.713-.162a.943.943 0 0 0 .385-.417 1.274 1.274 0 0 0 0-1.07 1 1 0 0 0-.385-.434c-.178-.12-.416-.179-.713-.179h-1.81v-.847ZM96.009 7.195h1.03l-.088 2.256a7.066 7.066 0 0 1-.195 1.482c-.108.416-.246.77-.413 1.064-.167.29-.354.533-.562.73a3.681 3.681 0 0 1-.636.496h-.512l.028-.841.212-.006c.122-.145.24-.293.356-.446.115-.156.221-.34.318-.551.096-.216.176-.477.24-.786.066-.312.109-.692.127-1.142l.095-2.256Zm.256 0h3.627v6.028h-1.03V8.148h-2.597v-.953ZM94.4 12.376h6.267V15h-1.03v-1.777H95.43V15h-1.037l.006-2.624ZM105.836 7.195v.852h-2.913v-.852h2.913Zm.908 0v6.028h-1.03V7.195h1.03Zm-4.072 0h1.036l-.156 2.908c-.026.45-.069.847-.128 1.192a4.1 4.1 0 0 1-.234.88 1.82 1.82 0 0 1-.368.602 1.341 1.341 0 0 1-.523.34c-.205.07-.44.106-.708.106h-.323v-.908l.223-.017a.953.953 0 0 0 .407-.111.797.797 0 0 0 .289-.279c.078-.126.141-.288.19-.485a4.44 4.44 0 0 0 .117-.702c.029-.27.052-.586.067-.947l.111-2.579ZM109.625 10.348h1.114l-1.744 2.875h-1.114l1.744-2.875Zm.863-3.153h2.518v6.028h-1.03V8.03h-1.488c-.293 0-.533.05-.719.15a.94.94 0 0 0-.406.379.99.99 0 0 0-.011.958.92.92 0 0 0 .367.368c.167.096.383.145.647.145h1.888v.846h-1.888c-.346 0-.652-.046-.92-.139a2.011 2.011 0 0 1-.679-.384 1.681 1.681 0 0 1-.424-.585 1.866 1.866 0 0 1-.145-.736c0-.263.051-.507.151-.73.104-.222.252-.417.446-.584a2.04 2.04 0 0 1 .718-.385c.286-.093.611-.139.975-.139Z" stroke="#fff" stroke-width="0.2" mask="url(#android-download_svg__a)"></path><path fill-rule="evenodd" clip-rule="evenodd" d="M53.302 22.14c1.538 0 2.816.775 3.424 1.611v-1.405h2.344v10.436h-1.687a.666.666 0 0 1-.474-.192.627.627 0 0 1-.145-.212.627.627 0 0 1-.05-.25v-.752C56.117 32.224 54.84 33 53.301 33c-2.928 0-5.148-2.448-5.148-5.43 0-2.982 2.22-5.43 5.148-5.43Zm-2.766 5.43c0 1.878 1.277 3.345 3.188 3.345 1.898 0 3.188-1.466 3.188-3.345 0-1.88-1.278-3.346-3.188-3.346-1.898 0-3.188 1.467-3.188 3.346Zm11.201-5.224h2.357v1.418c.645-1.043 1.86-1.625 3.25-1.625 2.481 0 4.081 1.71 4.081 4.364v6.279h-1.687a.666.666 0 0 1-.474-.192.626.626 0 0 1-.145-.212.627.627 0 0 1-.05-.25v-5.25c0-1.648-.856-2.654-2.221-2.654-1.563 0-2.754 1.188-2.754 3.418v5.14h-1.687a.666.666 0 0 1-.474-.192.624.624 0 0 1-.145-.212.626.626 0 0 1-.05-.25v-9.782Zm20.12 1.405v-6.618h2.345v15.66h-1.687a.666.666 0 0 1-.474-.19.626.626 0 0 1-.145-.213.627.627 0 0 1-.05-.25v-.752C81.25 32.224 79.96 33 78.421 33c-2.928 0-5.148-2.448-5.148-5.43.012-2.982 2.233-5.43 5.16-5.43 1.538 0 2.816.775 3.424 1.611Zm-6.19 3.819c0 1.878 1.279 3.345 3.189 3.345 1.898 0 3.188-1.466 3.188-3.345 0-1.88-1.29-3.346-3.188-3.346-1.898 0-3.188 1.467-3.188 3.346Zm13.547-5.224V24.2c.102-.284.248-.55.433-.79a2.983 2.983 0 0 1 1.477-1.03 3.099 3.099 0 0 1 1.137-.139 4.83 4.83 0 0 1 .687.08v2.364a3.913 3.913 0 0 0-1.179-.194c-1.352 0-2.567 1.103-2.567 3.2v5.09h-1.688a.666.666 0 0 1-.473-.19.627.627 0 0 1-.145-.213.627.627 0 0 1-.051-.25v-9.782h2.369ZM99.299 33c-3.163 0-5.595-2.4-5.595-5.43s2.432-5.43 5.595-5.43 5.595 2.4 5.595 5.43S102.462 33 99.299 33Zm0-2.133c1.886 0 3.201-1.443 3.201-3.297 0-1.855-1.328-3.297-3.2-3.297-1.899 0-3.226 1.442-3.226 3.297 0 1.854 1.327 3.297 3.225 3.297Zm8.069-10.92a1.564 1.564 0 0 1-.85-.831 1.513 1.513 0 0 1-.123-.589 1.525 1.525 0 0 1 .47-1.076c.146-.14.319-.253.507-.331a1.583 1.583 0 0 1 1.707.33c.295.287.46.677.46 1.083 0 .406-.165.797-.46 1.084a1.583 1.583 0 0 1-1.711.33Zm1.781 2.399v10.436h-1.675a.668.668 0 0 1-.67-.655v-9.782h2.345Zm10.507 1.405v-6.618H122v15.66h-1.687a.668.668 0 0 1-.67-.654v-.751c-.595.836-1.885 1.612-3.424 1.612-2.927 0-5.148-2.448-5.148-5.43.013-2.982 2.233-5.43 5.161-5.43 1.538 0 2.816.775 3.424 1.611Zm-6.178 3.819c0 1.878 1.278 3.345 3.188 3.345 1.898 0 3.188-1.466 3.188-3.345 0-1.88-1.29-3.346-3.188-3.346-1.898 0-3.188 1.467-3.188 3.346Z" fill="#fff"></path><rect x="0.654" y="0.5" width="132.846" height="39" rx="7.5" stroke="#A6A6A6"></rect></svg>