<svg width="134px" height="40px" viewBox="0 0 132 40" fill="none" xmlns="http://www.w3.org/2000/svg"><rect x="0.612" y="0.5" width="130.042" height="39" rx="7.5" fill="#000"></rect><path d="M26.909 20.692a4.95 4.95 0 0 1 2.357-4.151 5.067 5.067 0 0 0-3.992-2.158c-1.679-.176-3.307 1.005-4.163 1.005-.872 0-2.19-.988-3.608-.958a5.315 5.315 0 0 0-4.473 2.727c-1.934 3.349-.491 8.27 1.361 10.976.927 1.326 2.01 2.806 3.428 2.754 1.387-.058 1.905-.885 3.58-.885 1.658 0 2.144.885 3.59.851 1.489-.024 2.426-1.33 3.32-2.669a10.96 10.96 0 0 0 1.52-3.092 4.782 4.782 0 0 1-2.92-4.4ZM24.178 12.602a4.872 4.872 0 0 0 1.114-3.49 4.958 4.958 0 0 0-3.208 1.66 4.638 4.638 0 0 0-1.143 3.36 4.098 4.098 0 0 0 3.237-1.53Z" fill="#fff"></path><mask id="app-store-download_svg__a" maskUnits="userSpaceOnUse" x="40.828" y="5" width="51" height="10" fill="#000"><path fill="#fff" d="M40.828 5h51v10h-51z"></path><path d="M42.806 9.52c0-1.687.731-2.637 2.041-2.637 1.08 0 1.822.702 1.85 1.726h.967v-.017C47.664 7.085 46.478 6 44.842 6c-1.9 0-3.014 1.316-3.014 3.52v1.006c0 2.181 1.113 3.474 3.014 3.474 1.624 0 2.822-1.04 2.822-2.457v-.022h-.967c-.028.95-.77 1.596-1.85 1.596-1.31 0-2.04-.933-2.04-2.591V9.519ZM50.986 10.745l2.772-2.817h-1.231l-2.395 2.457h-.034V7.928h-.967v5.909h.967v-2.665h.034l2.513 2.665h1.26l-2.919-3.092ZM58.11 13.1h.028v.737h.927V9.761c0-1.242-.916-1.928-2.176-1.928-1.428 0-2.13.753-2.192 1.788h.91c.057-.59.49-.979 1.249-.979.798 0 1.248.428 1.248 1.203v.602h-1.558c-1.354.006-2.074.658-2.074 1.692 0 1.085.787 1.793 1.928 1.793.872 0 1.411-.354 1.71-.832Zm-1.451.029c-.618 0-1.198-.326-1.198-1.024 0-.534.349-.916 1.159-.916h1.484v.686c0 .736-.619 1.254-1.445 1.254ZM65.334 13.837V7.928h-.968v2.586c-.005.006-.505.377-1.382.377-.85 0-1.282-.472-1.282-1.214V7.928h-.962V9.7c0 1.237.63 2.058 2.148 2.058.855 0 1.411-.36 1.428-.377h.05v2.457h.968ZM70.466 13.1h.028v.737h.928V9.761c0-1.242-.916-1.928-2.176-1.928-1.428 0-2.13.753-2.192 1.788h.91c.057-.59.49-.979 1.249-.979.798 0 1.248.428 1.248 1.203v.602h-1.558c-1.354.006-2.074.658-2.074 1.692 0 1.085.787 1.793 1.928 1.793.872 0 1.411-.354 1.71-.832Zm-1.45.029c-.619 0-1.198-.326-1.198-1.024 0-.534.349-.916 1.159-.916h1.484v.686c0 .736-.619 1.254-1.445 1.254ZM77.415 8.721v-.793h-4.852v.793h1.945v5.116h.968V8.721h1.939ZM80.535 10.722c.799 0 1.31.45 1.31 1.159 0 .697-.511 1.169-1.304 1.169h-.962v-2.328h.956Zm-1.922 3.115h1.956c1.372 0 2.243-.759 2.243-1.95 0-1.198-.871-1.952-2.243-1.952h-.99V7.928h-.966v5.909ZM86.528 13.837h2.339c1.304 0 2.232-.568 2.232-1.659 0-.781-.456-1.326-1.282-1.444v-.028c.585-.158.95-.596.95-1.265 0-.922-.736-1.513-1.816-1.513h-2.423v5.909Zm.956-5.138h1.327c.562 0 .995.247.995.815 0 .652-.416.905-1.215.905h-1.107v-1.72Zm0 2.479h1.411c.737 0 1.243.32 1.243.955 0 .743-.59.934-1.378.934h-1.276v-1.89Z"></path></mask><path d="M42.806 9.52c0-1.687.731-2.637 2.041-2.637 1.08 0 1.822.702 1.85 1.726h.967v-.017C47.664 7.085 46.478 6 44.842 6c-1.9 0-3.014 1.316-3.014 3.52v1.006c0 2.181 1.113 3.474 3.014 3.474 1.624 0 2.822-1.04 2.822-2.457v-.022h-.967c-.028.95-.77 1.596-1.85 1.596-1.31 0-2.04-.933-2.04-2.591V9.519ZM50.986 10.745l2.772-2.817h-1.231l-2.395 2.457h-.034V7.928h-.967v5.909h.967v-2.665h.034l2.513 2.665h1.26l-2.919-3.092ZM58.11 13.1h.028v.737h.927V9.761c0-1.242-.916-1.928-2.176-1.928-1.428 0-2.13.753-2.192 1.788h.91c.057-.59.49-.979 1.249-.979.798 0 1.248.428 1.248 1.203v.602h-1.558c-1.354.006-2.074.658-2.074 1.692 0 1.085.787 1.793 1.928 1.793.872 0 1.411-.354 1.71-.832Zm-1.451.029c-.618 0-1.198-.326-1.198-1.024 0-.534.349-.916 1.159-.916h1.484v.686c0 .736-.619 1.254-1.445 1.254ZM65.334 13.837V7.928h-.968v2.586c-.005.006-.505.377-1.382.377-.85 0-1.282-.472-1.282-1.214V7.928h-.962V9.7c0 1.237.63 2.058 2.148 2.058.855 0 1.411-.36 1.428-.377h.05v2.457h.968ZM70.466 13.1h.028v.737h.928V9.761c0-1.242-.916-1.928-2.176-1.928-1.428 0-2.13.753-2.192 1.788h.91c.057-.59.49-.979 1.249-.979.798 0 1.248.428 1.248 1.203v.602h-1.558c-1.354.006-2.074.658-2.074 1.692 0 1.085.787 1.793 1.928 1.793.872 0 1.411-.354 1.71-.832Zm-1.45.029c-.619 0-1.198-.326-1.198-1.024 0-.534.349-.916 1.159-.916h1.484v.686c0 .736-.619 1.254-1.445 1.254ZM77.415 8.721v-.793h-4.852v.793h1.945v5.116h.968V8.721h1.939ZM80.535 10.722c.799 0 1.31.45 1.31 1.159 0 .697-.511 1.169-1.304 1.169h-.962v-2.328h.956Zm-1.922 3.115h1.956c1.372 0 2.243-.759 2.243-1.95 0-1.198-.871-1.952-2.243-1.952h-.99V7.928h-.966v5.909ZM86.528 13.837h2.339c1.304 0 2.232-.568 2.232-1.659 0-.781-.456-1.326-1.282-1.444v-.028c.585-.158.95-.596.95-1.265 0-.922-.736-1.513-1.816-1.513h-2.423v5.909Zm.956-5.138h1.327c.562 0 .995.247.995.815 0 .652-.416.905-1.215.905h-1.107v-1.72Zm0 2.479h1.411c.737 0 1.243.32 1.243.955 0 .743-.59.934-1.378.934h-1.276v-1.89Z" fill="#fff"></path><path d="M42.806 9.52c0-1.687.731-2.637 2.041-2.637 1.08 0 1.822.702 1.85 1.726h.967v-.017C47.664 7.085 46.478 6 44.842 6c-1.9 0-3.014 1.316-3.014 3.52v1.006c0 2.181 1.113 3.474 3.014 3.474 1.624 0 2.822-1.04 2.822-2.457v-.022h-.967c-.028.95-.77 1.596-1.85 1.596-1.31 0-2.04-.933-2.04-2.591V9.519ZM50.986 10.745l2.772-2.817h-1.231l-2.395 2.457h-.034V7.928h-.967v5.909h.967v-2.665h.034l2.513 2.665h1.26l-2.919-3.092ZM58.11 13.1h.028v.737h.927V9.761c0-1.242-.916-1.928-2.176-1.928-1.428 0-2.13.753-2.192 1.788h.91c.057-.59.49-.979 1.249-.979.798 0 1.248.428 1.248 1.203v.602h-1.558c-1.354.006-2.074.658-2.074 1.692 0 1.085.787 1.793 1.928 1.793.872 0 1.411-.354 1.71-.832Zm-1.451.029c-.618 0-1.198-.326-1.198-1.024 0-.534.349-.916 1.159-.916h1.484v.686c0 .736-.619 1.254-1.445 1.254ZM65.334 13.837V7.928h-.968v2.586c-.005.006-.505.377-1.382.377-.85 0-1.282-.472-1.282-1.214V7.928h-.962V9.7c0 1.237.63 2.058 2.148 2.058.855 0 1.411-.36 1.428-.377h.05v2.457h.968ZM70.466 13.1h.028v.737h.928V9.761c0-1.242-.916-1.928-2.176-1.928-1.428 0-2.13.753-2.192 1.788h.91c.057-.59.49-.979 1.249-.979.798 0 1.248.428 1.248 1.203v.602h-1.558c-1.354.006-2.074.658-2.074 1.692 0 1.085.787 1.793 1.928 1.793.872 0 1.411-.354 1.71-.832Zm-1.45.029c-.619 0-1.198-.326-1.198-1.024 0-.534.349-.916 1.159-.916h1.484v.686c0 .736-.619 1.254-1.445 1.254ZM77.415 8.721v-.793h-4.852v.793h1.945v5.116h.968V8.721h1.939ZM80.535 10.722c.799 0 1.31.45 1.31 1.159 0 .697-.511 1.169-1.304 1.169h-.962v-2.328h.956Zm-1.922 3.115h1.956c1.372 0 2.243-.759 2.243-1.95 0-1.198-.871-1.952-2.243-1.952h-.99V7.928h-.966v5.909ZM86.528 13.837h2.339c1.304 0 2.232-.568 2.232-1.659 0-.781-.456-1.326-1.282-1.444v-.028c.585-.158.95-.596.95-1.265 0-.922-.736-1.513-1.816-1.513h-2.423v5.909Zm.956-5.138h1.327c.562 0 .995.247.995.815 0 .652-.416.905-1.215.905h-1.107v-1.72Zm0 2.479h1.411c.737 0 1.243.32 1.243.955 0 .743-.59.934-1.378.934h-1.276v-1.89Z" stroke="#fff" stroke-width="0.2" mask="url(#app-store-download_svg__a)"></path><path d="M49.895 27.494h-4.849l-1.164 3.438h-2.054l4.593-12.72h2.133l4.593 12.72h-2.089l-1.163-3.438Zm-4.347-1.586h3.844l-1.895-5.58h-.053l-1.896 5.58ZM63.503 26.296c0 2.881-1.542 4.733-3.87 4.733a3.144 3.144 0 0 1-2.918-1.622h-.044V34h-1.904V21.658h1.843V23.2h.035a3.29 3.29 0 0 1 2.953-1.64c2.354 0 3.905 1.862 3.905 4.736Zm-1.956 0c0-1.878-.97-3.113-2.451-3.113-1.454 0-2.433 1.26-2.433 3.113 0 1.868.979 3.12 2.433 3.12 1.48 0 2.45-1.226 2.45-3.12ZM73.71 26.296c0 2.881-1.542 4.733-3.87 4.733a3.144 3.144 0 0 1-2.917-1.622h-.044V34h-1.904V21.658h1.843V23.2h.035a3.29 3.29 0 0 1 2.953-1.64c2.353 0 3.905 1.862 3.905 4.736Zm-1.956 0c0-1.878-.97-3.113-2.45-3.113-1.455 0-2.433 1.26-2.433 3.113 0 1.868.978 3.12 2.432 3.12 1.48 0 2.451-1.226 2.451-3.12ZM80.457 27.388c.141 1.262 1.367 2.09 3.041 2.09 1.605 0 2.759-.829 2.759-1.966 0-.987-.696-1.578-2.345-1.983l-1.648-.398c-2.336-.564-3.42-1.656-3.42-3.429 0-2.195 1.912-3.702 4.628-3.702 2.688 0 4.53 1.508 4.593 3.702h-1.922c-.115-1.27-1.165-2.035-2.698-2.035s-2.583.775-2.583 1.903c0 .9.67 1.429 2.31 1.834l1.401.344c2.61.617 3.695 1.665 3.695 3.526 0 2.38-1.896 3.87-4.911 3.87-2.821 0-4.726-1.455-4.849-3.756h1.949ZM92.376 19.463v2.195h1.764v1.508h-1.764v5.112c0 .795.353 1.165 1.128 1.165.21-.004.419-.019.627-.044v1.498a5.222 5.222 0 0 1-1.058.088c-1.877 0-2.61-.705-2.61-2.504v-5.315h-1.348v-1.508h1.348v-2.195h1.913ZM95.16 26.296c0-2.918 1.72-4.752 4.4-4.752 2.688 0 4.399 1.834 4.399 4.752 0 2.926-1.702 4.751-4.4 4.751-2.697 0-4.398-1.825-4.398-4.751Zm6.859 0c0-2.002-.917-3.183-2.46-3.183-1.542 0-2.459 1.19-2.459 3.183 0 2.01.917 3.182 2.46 3.182 1.542 0 2.459-1.173 2.459-3.182ZM105.528 21.658h1.816v1.578h.044a2.214 2.214 0 0 1 2.231-1.675c.219-.001.438.023.652.07v1.781a2.66 2.66 0 0 0-.855-.115 1.921 1.921 0 0 0-1.9 1.318 1.916 1.916 0 0 0-.084.816v5.5h-1.904v-9.273ZM119.048 28.208c-.256 1.684-1.896 2.84-3.993 2.84-2.698 0-4.373-1.808-4.373-4.708 0-2.91 1.684-4.796 4.292-4.796 2.566 0 4.18 1.763 4.18 4.575v.652h-6.55v.115a2.4 2.4 0 0 0 .654 1.876 2.41 2.41 0 0 0 1.841.75 2.098 2.098 0 0 0 2.141-1.304h1.808Zm-6.435-2.767h4.636a2.236 2.236 0 0 0-.623-1.674 2.217 2.217 0 0 0-1.652-.68 2.347 2.347 0 0 0-2.361 2.354Z" fill="#fff"></path><rect x="0.612" y="0.5" width="130.042" height="39" rx="7.5" stroke="#A6A6A6"></rect></svg>