<svg width="1em" height="1em" viewBox="0 0 24 24" fill="#0071F4" xmlns="http://www.w3.org/2000/svg"><g clip-path="url(#arrowLong_svg__a)"><path d="M16.123 3.308a.853.853 0 0 0-.963-.25.852.852 0 0 0-.486.49.862.862 0 0 0 .249.968l6.122 6.17H.81a.852.852 0 0 0-.575.266.863.863 0 0 0 .575 1.45h20.236l-6.132 6.162a.878.878 0 0 0 0 1.208.847.847 0 0 0 .925.186.846.846 0 0 0 .275-.186l7.584-7.633a.837.837 0 0 0 .19-.932.837.837 0 0 0-.19-.275l-7.574-7.624Z"></path></g><defs><clipPath id="arrowLong_svg__a"><path fill="#fff" d="M0 0h24v24H0z"></path></clipPath></defs></svg>