<svg width="1em" height="1em" viewBox="0 0 18 18" fill="none" xmlns="http://www.w3.org/2000/svg"><path fill-rule="evenodd" clip-rule="evenodd" d="M7.326.808C8.052 1.397 8.61 2.225 9 3.002c.39-.777.948-1.605 1.675-2.194.54-.438 1.221-.78 2.021-.806.81-.027 1.611.276 2.373.887.396.318.716.693.892 1.133.184.459.187.932.035 1.37-.2.577-.64 1.019-1.131 1.345h1.714c.523 0 .947.424.947.947V7.58a.947.947 0 0 1-.947.947H9.947v-3.79H8.053v3.79H1.42a.947.947 0 0 1-.947-.947V5.684c0-.523.424-.947.947-.947h1.714c-.49-.326-.93-.768-1.131-1.345a1.93 1.93 0 0 1 .035-1.37c.176-.44.495-.815.892-1.133.762-.611 1.563-.914 2.373-.887.8.025 1.48.368 2.022.806ZM5.243 1.895c-.265-.008-.637.08-1.126.472-.229.183-.3.31-.32.359-.01.027-.008.031-.005.04l.001.004c.03.086.213.337.758.592.502.235 1.16.397 1.825.423.308.013.602-.004.871-.05-.294-.559-.679-1.101-1.115-1.455-.318-.258-.614-.376-.89-.385Zm7.514 0c.265-.008.637.08 1.126.472.229.183.3.31.32.359.01.027.008.031.005.04l-.001.004c-.03.086-.213.337-.758.592a4.912 4.912 0 0 1-1.825.423 4.298 4.298 0 0 1-.871-.05c.294-.559.679-1.101 1.115-1.455.318-.258.614-.376.89-.385Z" fill="#8b3a9a"></path><path d="M8.053 10.421H1.42v5.684c0 1.047.848 1.895 1.895 1.895h4.737v-7.579ZM9.947 10.421V18h4.737a1.895 1.895 0 0 0 1.895-1.895v-5.684H9.947Z" fill="#8b3a9a"></path></svg>