<svg width="64px" height="64px" viewBox="0 0 64 64" fill="none" xmlns="http://www.w3.org/2000/svg"><g clip-path="url(#nl-momentory_svg__a)"><path d="M13.844 1h36.312C57.25 1 63 6.75 63 13.844v36.312C63 57.25 57.25 63 50.156 63H13.844C6.75 63 1 57.25 1 50.156V13.844C1 6.75 6.75 1 13.844 1Z" fill="#fff" stroke="#8AB0D2" stroke-width="2"></path><path d="m42.47 21.792 9.89-4.862c-8.447 2.08-23.14 6.994-35.25 14.695-6.034 3.838-10.032 8.432-8.926 10.258 1.106 1.827 7.546.93 16.636-5.25.594-1.506 1.964-4.957 1.964-4.957s1.588 1.274 3.582 2.713c1.97-1.528 7.452-5.329 12.64-8.972-1.03.014-2.129.155-3.472.22l6.876-4.044-3.94.199Z" fill="url(#nl-momentory_svg__b)"></path><path d="m52.536 13.658.858-.446.291-.868.576.545 1.146-.281-.643.975.533 1.078-1.24-.268-.895.79.064-1.11-.69-.415Z" fill="url(#nl-momentory_svg__c)"></path><path d="m44.98 24.113.857-.447.292-.872.576.55 1.146-.282-.643.975.532 1.078-1.24-.268-.894.79.063-1.109-.69-.415Z" fill="url(#nl-momentory_svg__d)"></path><path d="m31.879 18.139 1.732-.941.56-1.789 1.196 1.092 2.325-.618-1.273 2.012 1.126 2.177-2.533-.495-1.796 1.648.09-2.266-1.427-.82Z" fill="url(#nl-momentory_svg__e)"></path><path d="m46.407 13.737 1.253-.539.496-1.198.761.83 1.642-.277-1.002 1.308.647 1.576-1.723-.505-1.337 1.023.198-1.559-.935-.659Z" fill="url(#nl-momentory_svg__f)"></path><path d="M31.992 39.888c.101-.037.212.066.205.193-.027.576-.245 1.922-1.665 2.465-1.287.487-2.373-.347-2.802-.756-.093-.089-.077-.25.027-.291l4.235-1.61Z" fill="#E51E73"></path><path d="m27.758 41.495-8.793-1.977c-3.95 2.187-7.981 3.577-9.985 2.946l-.375-.152c.362.265.724.553 1.079.855 1.233 1.11 3.414 3.437 5.95 7.8.014.032.03.06.044.09.04.086.09.165.148.24 1.22 1.624 6.034.289 10.856-2.52.496-1.6.935-3.306 1.073-3.402.24-.165 0-3.88 0-3.88h.003Z" fill="url(#nl-momentory_svg__g)"></path><path d="m36.16 33.094-1.026 2.458-1.166 2.795-.02.051a.564.564 0 0 0 .06.464l2.976 4.848a.553.553 0 0 1 0 .59.53.53 0 0 1-.506.258l-5.549-.532a.506.506 0 0 0-.258.04.521.521 0 0 0-.208.159l-3.558 4.39a.571.571 0 0 1-.208.159.543.543 0 0 1-.737-.391L24.723 42.8a.554.554 0 0 0-.328-.395l-5.174-2.132a.56.56 0 0 1-.341-.525c0-.182.087-.364.264-.47l4.785-2.919a.568.568 0 0 0 .261-.443l.362-5.71c0-.068.02-.13.044-.185a.543.543 0 0 1 .292-.292.531.531 0 0 1 .566.097l4.192 3.78c.134.12.318.168.489.123l5.398-1.397c.432-.11.804.336.627.762Z" fill="url(#nl-momentory_svg__h)"></path><path opacity="0.2" d="m24.587 30.021-.144 6.115-.385.1c.07-.09.117-.2.124-.32l.362-5.71a.626.626 0 0 1 .043-.185ZM25.014 42.467l1.411 6.345a.543.543 0 0 1-.472-.43L24.716 42.8a.554.554 0 0 0-.328-.395l-5.174-2.132a.56.56 0 0 1-.342-.525l5.794 2.31a.56.56 0 0 1 .348.409ZM31.4 43.535l5.579.769a.53.53 0 0 1-.506.257l-5.55-.532a.507.507 0 0 0-.257.041.52.52 0 0 0-.208.158l.241-.37a.708.708 0 0 1 .7-.323Z" fill="#472918"></path><path opacity="0.5" d="m36.152 33.094-1.026 2.458.627-2.612c.034-.145-.094-.275-.234-.237l-5.385 1.51a.595.595 0 0 1-.56-.134l-4.326-3.934-.583-.258a.54.54 0 0 1 .778-.061l4.191 3.78c.135.12.319.168.49.123l5.398-1.397c.436-.11.807.336.63.762ZM37.034 44.197l-3.206-4.628a.695.695 0 0 1-.08-.621l.197-.55a.564.564 0 0 0 .06.464l2.976 4.848a.565.565 0 0 1 .053.487Z" fill="#fff"></path><path d="M24.917 29.825a.42.42 0 0 1 .46.08l4.191 3.78c.158.144.376.198.583.144l5.399-1.398a.42.42 0 0 1 .442.144.46.46 0 0 1 .07.474l-1.025 2.459-1.17 2.801-.02.052v.006a.673.673 0 0 0 .07.55l2.976 4.844a.453.453 0 0 1 0 .484.436.436 0 0 1-.204.179.435.435 0 0 1-.208.03l-5.546-.528a.622.622 0 0 0-.304.048.62.62 0 0 0-.248.189l-3.559 4.39a.419.419 0 0 1-.17.128.461.461 0 0 1-.219.03.435.435 0 0 1-.382-.35l-1.236-5.582a.648.648 0 0 0-.389-.467l-5.173-2.132a.452.452 0 0 1-.279-.429.44.44 0 0 1 .215-.381l4.785-2.918a.53.53 0 0 0 .147-.127l.017-.021a.676.676 0 0 0 .148-.378l.361-5.71a.466.466 0 0 1 .1-.258.377.377 0 0 1 .168-.133Zm-.037-.096a.531.531 0 0 0-.291.292.555.555 0 0 0-.043.185l-.362 5.71a.545.545 0 0 1-.124.32.535.535 0 0 1-.138.123l-4.785 2.918a.549.549 0 0 0-.264.47c0 .217.113.43.341.526l5.174 2.132a.555.555 0 0 1 .328.395l1.237 5.582a.54.54 0 0 0 .945.234l3.558-4.392a.545.545 0 0 1 .466-.199l5.549.533a.53.53 0 0 0 .506-.258.564.564 0 0 0 0-.59L34 38.861a.566.566 0 0 1-.06-.464l.02-.051 1.166-2.795 1.026-2.458c.177-.426-.198-.872-.63-.759l-5.399 1.398a.525.525 0 0 1-.489-.124l-4.192-3.784a.525.525 0 0 0-.563-.096Z" fill="#000" opacity="0.1"></path><path d="M24.952 29.922a.325.325 0 0 1 .355.061l4.192 3.78c.184.165.436.23.674.169l5.398-1.398a.329.329 0 0 1 .342.114c.087.102.107.24.053.367l-1.025 2.458-1.166 2.795h-.003v.007l-.024.051h-.003v.007a.77.77 0 0 0 .08.635l2.976 4.844a.347.347 0 0 1 .003.368H36.8v.007a.35.35 0 0 1-.161.137.32.32 0 0 1-.161.024l-5.546-.532a.706.706 0 0 0-.355.055.786.786 0 0 0-.288.216l-3.559 4.391a.335.335 0 0 1-.298.124.34.34 0 0 1-.295-.271l-1.236-5.583a.754.754 0 0 0-.45-.542l-5.173-2.132a.345.345 0 0 1-.214-.33c0-.123.06-.23.164-.295l4.785-2.918a.7.7 0 0 0 .154-.127l.034-.045a.788.788 0 0 0 .17-.436l.362-5.71a.335.335 0 0 1 .077-.2.425.425 0 0 1 .138-.091m-.077-.193a.53.53 0 0 0-.292.292.556.556 0 0 0-.043.185l-.362 5.71a.545.545 0 0 1-.124.32.535.535 0 0 1-.138.123l-4.785 2.918a.55.55 0 0 0-.264.47c0 .217.114.43.342.526l5.173 2.132a.554.554 0 0 1 .329.395l1.236 5.582a.54.54 0 0 0 .945.234l3.559-4.392a.546.546 0 0 1 .465-.199l5.55.532a.53.53 0 0 0 .506-.258.564.564 0 0 0 0-.59l-2.976-4.847a.566.566 0 0 1-.06-.464l.02-.051 1.165-2.795 1.026-2.458c.177-.426-.198-.872-.63-.759l-5.398 1.397a.526.526 0 0 1-.49-.123l-4.191-3.784a.525.525 0 0 0-.563-.096Z" fill="#000" opacity="0.1"></path><path d="M31.515 39.906c.1-.038.21.068.204.195-.034.577-.271 1.92-1.702 2.438-1.294.47-2.37-.385-2.791-.8-.09-.09-.074-.254.03-.292l4.259-1.541ZM26.41 38.508a.978.978 0 0 1-.503 1.277.94.94 0 0 1-1.247-.514.978.978 0 0 1 .503-1.278.943.943 0 0 1 1.246.515ZM32.245 36.407c-.003 0 0 0 0 0a1.33 1.33 0 0 0-1.059-.443c-1.414.127-1.622 1.638-1.625 1.655a.16.16 0 0 0 .007.069.158.158 0 0 0 .147.106.131.131 0 0 0 .05-.01.147.147 0 0 0 .09-.09c.336-.824.926-1.02 1.348-1.036h.057c.449-.017.75.068.764.068.006.004.023.01.03.01.003 0 .007 0 .01.004.07.01.144-.014.188-.072a.202.202 0 0 0-.007-.261Z" fill="#fff"></path><path d="M13.844 1h36.312C57.25 1 63 6.75 63 13.844v36.312C63 57.25 57.25 63 50.156 63H13.844C6.75 63 1 57.25 1 50.156V13.844C1 6.75 6.75 1 13.844 1Z" stroke="#8B3A9A" stroke-width="2"></path></g><defs><linearGradient id="nl-momentory_svg__b" x1="54.81" y1="16.57" x2="7.549" y2="40.122" gradientUnits="userSpaceOnUse"><stop stop-color="#00E3F9"></stop><stop offset="0.37" stop-color="#1CD5F6"></stop><stop offset="0.43" stop-color="#22D2F5"></stop><stop offset="0.51" stop-color="#20CDF6"></stop><stop offset="0.6" stop-color="#1AC0F7"></stop><stop offset="0.69" stop-color="#11A9FA"></stop><stop offset="0.79" stop-color="#0489FE"></stop><stop offset="0.81" stop-color="#0080FF"></stop><stop offset="0.9" stop-color="#0063FF"></stop><stop offset="1" stop-color="#0040FF"></stop></linearGradient><linearGradient id="nl-momentory_svg__c" x1="52.536" y1="13.765" x2="55.407" y2="13.765" gradientUnits="userSpaceOnUse"><stop stop-color="#00FF30"></stop><stop offset="0.19" stop-color="#00F930"></stop><stop offset="0.44" stop-color="#00EA2F"></stop><stop offset="0.72" stop-color="#00D02D"></stop><stop offset="1" stop-color="#00AD2B"></stop></linearGradient><linearGradient id="nl-momentory_svg__d" x1="44.979" y1="24.216" x2="47.851" y2="24.216" gradientUnits="userSpaceOnUse"><stop stop-color="#0080FF"></stop><stop offset="0.38" stop-color="#007FFF"></stop><stop offset="0.71" stop-color="#005FFF"></stop><stop offset="1" stop-color="#0040FF"></stop></linearGradient><linearGradient id="nl-momentory_svg__e" x1="31.879" y1="18.317" x2="37.692" y2="18.317" gradientUnits="userSpaceOnUse"><stop stop-color="#F7448A"></stop><stop offset="0.22" stop-color="#F53E89"></stop><stop offset="0.49" stop-color="#EE2F86"></stop><stop offset="0.8" stop-color="#E31582"></stop><stop offset="1" stop-color="#DA007E"></stop></linearGradient><linearGradient id="nl-momentory_svg__f" x1="45.559" y1="16.288" x2="50.47" y2="12.967" gradientUnits="userSpaceOnUse"><stop stop-color="#00E3F9"></stop><stop offset="0.37" stop-color="#1CD5F6"></stop><stop offset="0.43" stop-color="#22D2F5"></stop><stop offset="0.55" stop-color="#20CDF6"></stop><stop offset="0.68" stop-color="#1AC0F7"></stop><stop offset="0.82" stop-color="#11A9FA"></stop><stop offset="0.96" stop-color="#0489FE"></stop><stop offset="1" stop-color="#0080FF"></stop></linearGradient><linearGradient id="nl-momentory_svg__g" x1="8.605" y1="45.759" x2="27.865" y2="45.759" gradientUnits="userSpaceOnUse"><stop stop-color="#0080FF"></stop><stop offset="0.05" stop-color="#0489FE"></stop><stop offset="0.22" stop-color="#11A9FA"></stop><stop offset="0.39" stop-color="#1AC0F7"></stop><stop offset="0.56" stop-color="#20CDF6"></stop><stop offset="0.7" stop-color="#22D2F5"></stop><stop offset="0.74" stop-color="#1CD5F6"></stop><stop offset="1" stop-color="#00E3F9"></stop></linearGradient><linearGradient id="nl-momentory_svg__h" x1="11.917" y1="70.376" x2="33.761" y2="33.448" gradientUnits="userSpaceOnUse"><stop stop-color="#00E3F9"></stop><stop offset="0.37" stop-color="#1CD5F6"></stop><stop offset="0.43" stop-color="#22D2F5"></stop><stop offset="0.51" stop-color="#20CDF6"></stop><stop offset="0.6" stop-color="#1AC0F7"></stop><stop offset="0.69" stop-color="#11A9FA"></stop><stop offset="0.79" stop-color="#0489FE"></stop><stop offset="0.81" stop-color="#0080FF"></stop><stop offset="0.9" stop-color="#0063FF"></stop><stop offset="1" stop-color="#0040FF"></stop></linearGradient><clipPath id="nl-momentory_svg__a"><path fill="#fff" d="M0 0h64v64H0z"></path></clipPath></defs></svg>