<svg width="32px" height="32px" viewBox="0 0 32 32" fill="currentColor" xmlns="http://www.w3.org/2000/svg"><path d="M6.512 8C5.135 8 4 9.192 4 10.638v11.724C4 23.808 5.135 25 6.512 25h18.976C26.865 25 28 23.808 28 22.362V10.638C28 9.192 26.865 8 25.488 8H6.512Zm.209 1.759h18.558l-8.73 7.987c-.338.31-.741.31-1.081 0L6.721 9.759Zm-1.047 1.373 5.922 5.405-5.922 5.807V11.132Zm20.652.01v11.21l-5.904-5.816 5.904-5.394Zm-7.178 6.549 5.625 5.55H7.218l5.651-5.541 1.5 1.365a2.422 2.422 0 0 0 3.28 0l1.5-1.374Z"></path></svg>