<svg width="60px" height="44px" viewBox="0 0 84 60" fill="none" xmlns="http://www.w3.org/2000/svg"><path fill-rule="evenodd" clip-rule="evenodd" d="M64.111 39.208v-.545h-.142l-.163.374-.164-.374H63.5v.545h.1v-.41l.154.353h.105l.153-.354v.41h.1Zm-.9 0v-.452h.182v-.092h-.463v.092h.181v.452h.1Z" fill="#F79410"></path><path fill-rule="evenodd" clip-rule="evenodd" d="M48.001 41.542H35.734V19.497h12.267v22.045Z" fill="#FF5F00"></path><path fill-rule="evenodd" clip-rule="evenodd" d="M36.507 30.52c0-4.472 2.094-8.455 5.354-11.022a13.96 13.96 0 0 0-8.663-2.998c-7.742 0-14.018 6.277-14.018 14.02 0 7.743 6.276 14.02 14.018 14.02a13.962 13.962 0 0 0 8.664-2.998 13.997 13.997 0 0 1-5.355-11.022Z" fill="#EB001B"></path><path fill-rule="evenodd" clip-rule="evenodd" d="M64.55 30.52c0 7.743-6.276 14.02-14.018 14.02a13.965 13.965 0 0 1-8.665-2.998 13.995 13.995 0 0 0 5.355-11.022c0-4.472-2.093-8.455-5.355-11.022a13.965 13.965 0 0 1 8.665-2.998c7.742 0 14.018 6.277 14.018 14.02" fill="#F79410"></path></svg>