<svg width="252" height="43" viewBox="0 0 252 43" fill="none" xmlns="http://www.w3.org/2000/svg">
<path d="M247.465 26.9708L241.987 27.1045C241.853 27.1045 241.853 26.9708 241.853 26.9708L243.189 22.8278C243.189 22.8278 243.189 22.6941 243.055 22.8278L237.845 27.2381C237.711 27.3718 237.711 27.3718 237.577 27.3718L13.9128 34.856C13.7792 34.856 13.6455 34.5887 13.7792 34.4551L38.898 10.7995C39.0316 10.6658 39.1652 10.7995 39.0316 10.9331L24.7352 31.9158C24.6016 32.0494 24.7352 32.3167 24.8689 32.3167L30.7477 32.0494C31.015 32.0494 31.4158 31.9158 31.5494 31.6485L52.7935 10.1313C52.9271 9.99761 53.0608 10.1313 52.9271 10.2649L40.6349 28.04C40.5013 28.3073 40.5013 28.5746 40.6349 28.8419L42.3719 30.5793C42.6391 30.8466 43.0399 30.9803 43.3072 30.9803L89.8037 29.5101C93.4112 29.3765 93.2776 29.2428 93.6785 28.5746L97.8204 21.0903C98.7557 19.4866 99.8246 18.1501 100.893 17.2146C102.096 16.279 103.165 15.4772 103.967 14.9426C104.1 14.8089 104.234 15.0762 104.1 15.2099L98.8893 25.2334C98.7557 25.5007 98.7557 25.768 98.8893 25.9017L101.161 28.7083C101.294 28.9755 101.562 28.8419 101.829 28.5746C105.703 22.8278 109.311 18.8183 110.781 17.2146C110.914 17.0809 111.048 17.3482 110.914 17.4819C109.044 21.0903 107.975 23.7633 107.708 24.6988C107.574 24.9661 107.574 25.2334 107.708 25.3671L109.044 27.9064C109.177 28.1737 109.311 28.3073 109.578 28.3073L122.004 27.9064C122.271 27.9064 122.405 27.7727 122.538 27.6391L129.219 20.8231C129.353 20.6894 129.353 20.823 129.353 20.9567C128.818 22.0259 128.417 23.2287 128.15 24.1642C128.15 24.4315 128.15 24.6988 128.284 24.8325L130.288 27.3718C130.421 27.5054 130.555 27.5054 130.689 27.5054L137.369 27.2381C137.503 27.2381 137.636 27.1045 137.77 27.1045L139.24 25.2334C139.373 25.0998 139.641 25.0998 139.774 25.2334L141.11 26.9708C141.244 27.1045 141.244 27.1045 141.378 27.1045L143.783 26.9708C143.916 26.9708 144.05 26.8372 144.183 26.7035L154.204 13.2051C154.338 13.0715 154.338 13.2051 154.338 13.3388L149.795 22.5605C149.661 22.8278 149.661 22.9614 149.795 23.2287L152.334 26.4362C152.467 26.5699 152.467 26.5699 152.601 26.5699L156.743 26.4362C156.876 26.4362 157.01 26.3026 157.144 26.169L159.682 22.9614H159.816C159.949 23.0951 160.217 23.496 160.618 24.0306L162.087 26.0353C162.221 26.169 162.221 26.169 162.354 26.169L164.893 26.0353C165.027 26.0353 165.16 26.0353 165.16 25.9017L175.181 12.4033C175.315 12.2696 175.315 12.4033 175.315 12.5369L170.772 21.7586C170.638 22.0259 170.638 22.2932 170.772 22.4268L173.311 25.6344C173.311 25.768 173.444 25.768 173.578 25.768L185.202 25.3671C185.336 25.3671 185.469 25.3671 185.603 25.2334C188.008 23.8969 191.214 20.5558 193.486 18.2837C193.619 18.1501 193.753 18.2838 193.619 18.4174L192.016 21.4913C191.882 21.7586 191.882 22.0259 192.016 22.1595L194.02 24.5652C194.154 24.6988 194.287 24.6988 194.421 24.6988L222.613 23.3624C222.747 23.3624 223.014 23.2287 223.147 22.9614L226.488 16.0117C226.621 15.8781 226.755 15.7444 226.889 15.7444C228.358 15.8781 229.694 15.7444 230.229 15.6108C230.362 15.6108 230.362 15.7444 230.362 15.7444C229.694 17.8828 229.294 20.2885 229.294 22.6941C229.294 22.8278 229.427 22.9614 229.427 22.9614L233.302 22.8278C233.436 22.8278 233.435 22.6941 233.435 22.5605C233.302 21.224 232.901 14.6753 238.513 7.32466C238.513 7.19101 238.513 7.19101 238.513 7.05736L236.375 4.38442C236.241 4.25077 236.241 4.25077 236.108 4.38442C235.573 5.05265 233.435 7.85925 231.699 11.735C231.565 12.0023 231.298 12.2696 231.164 12.2696C230.229 12.4033 229.16 12.4033 228.358 12.4033C228.225 12.4033 228.225 12.2696 228.225 12.136L230.362 7.59195C230.362 7.4583 230.362 7.45831 230.362 7.32466L227.824 4.65171H227.69L219.674 19.8875C219.54 20.0212 219.406 20.1548 219.273 20.1548L213.26 20.4221C213.127 20.4221 213.127 20.2885 213.127 20.1548C216.601 16.5463 218.07 11.3341 218.471 10.1313C218.471 9.99761 218.471 9.86396 218.337 9.73031L214.73 5.1863C214.73 5.05265 214.596 5.05265 214.463 5.1863C205.11 9.99761 203.106 17.7492 202.705 20.6894C202.705 20.8231 202.571 20.9567 202.438 20.9567L197.227 21.224C196.96 21.224 196.692 20.9567 196.826 20.5558C197.361 18.1501 200.701 12.5369 201.369 11.3341C201.502 11.2004 201.369 11.0668 201.369 10.9331L198.83 8.52748C198.697 8.39384 198.697 8.52748 198.563 8.52748C193.352 15.8781 188.141 19.8875 186.137 21.224C186.004 21.3576 185.87 21.224 186.004 21.0903C186.805 18.4174 188.676 13.7397 193.085 8.52748C193.219 8.39384 193.219 8.26019 193.085 8.26019L191.081 5.98819H190.947C190.146 6.92372 183.198 14.8089 181.461 21.6249C181.461 21.7586 181.327 22.0259 181.06 22.0259H176.517C176.384 22.0259 176.384 22.0259 176.25 21.8922L175.582 21.0903C175.448 20.9567 175.448 20.823 175.582 20.5558L179.991 10.5322C180.125 10.3985 179.991 10.1313 179.991 10.1313L177.586 6.92371C177.586 6.79007 177.453 6.79007 177.319 6.79007L166.363 7.32466C166.229 7.32466 166.096 7.4583 165.962 7.59195L163.824 11.6014C163.824 11.735 163.824 11.8687 163.958 11.8687L173.043 11.3341C173.177 11.3341 173.177 11.4677 173.177 11.6014L165.16 21.4913C165.027 21.6249 164.893 21.6249 164.893 21.4913L162.354 18.0165C162.221 17.8828 162.087 17.8828 162.087 18.0165L155.674 23.2287C155.54 23.3624 155.407 23.3624 155.407 23.2287L154.605 22.2932C154.471 22.1595 154.471 21.8922 154.605 21.7586L159.014 11.735C159.014 11.6014 159.014 11.4677 159.014 11.3341L156.743 8.12654C156.609 7.9929 156.476 7.85925 156.342 7.85925L145.386 8.39384C145.252 8.39384 145.119 8.52748 145.119 8.52748L142.981 12.5369C142.847 12.6706 142.981 12.8042 143.115 12.8042L152.066 12.2696C152.2 12.2696 152.334 12.5369 152.2 12.6706L144.183 22.4268C144.05 22.5605 143.916 22.5605 143.783 22.4268L141.378 19.0856C141.244 18.952 141.11 18.952 140.977 19.0856L136.568 23.8969C136.434 24.0306 136.167 24.1642 136.033 24.1642L133.094 24.2979C132.96 24.2979 132.826 24.2979 132.826 24.1642L132.693 23.8969C132.559 23.7633 132.559 23.6296 132.693 23.496C133.094 21.8922 135.499 17.8828 136.033 16.8136C136.167 16.68 136.033 16.5463 136.033 16.4127L133.628 13.7397C133.628 13.7397 133.495 13.7397 133.361 13.7397C129.219 18.8183 124.409 22.8278 122.672 24.1642C122.405 24.2979 122.138 24.0306 122.271 23.7633C125.478 13.8734 134.697 11.2004 136.167 10.9331C136.3 10.9331 136.3 10.7995 136.167 10.7995L133.495 8.66113H133.361C132.158 9.06208 120 13.0715 117.461 24.6988C117.328 25.0998 117.06 25.3671 116.793 25.3671L112.518 25.6344C112.25 25.6344 112.117 25.3671 112.25 24.9661C112.785 22.0259 115.323 16.68 115.992 15.3435C116.125 15.2099 116.125 14.9426 115.992 14.8089L113.319 13.0715C113.052 12.9379 112.785 12.9378 112.518 13.2051C110.914 14.6753 108.376 17.0809 106.639 18.952C106.505 19.0856 106.372 18.8183 106.505 18.6847L109.712 12.9378C109.845 12.6706 109.845 12.4033 109.712 12.2696L108.376 11.4677C108.242 11.3341 108.376 11.0668 108.509 11.0668C110.38 11.3341 113.186 11.4677 117.194 10.9331C117.595 10.9331 118.129 10.5322 118.396 10.1313L122.138 5.45359C122.271 5.31995 122.271 4.91901 122.004 5.05265C119.733 5.72089 111.582 8.12655 107.44 7.32466C107.307 7.32466 107.04 7.4583 106.906 7.59195L105.57 9.59666C105.436 9.86396 105.436 10.2649 105.57 10.3986C105.57 10.3986 105.703 10.3985 105.703 10.5322C105.971 10.6658 105.837 11.0668 105.703 11.2004L102.497 13.4724C102.363 13.6061 102.23 13.3388 102.363 13.0715L104.1 9.99761C104.234 9.86396 104.234 9.59666 104.1 9.46302L101.428 7.85925C101.294 7.7256 101.027 7.85925 100.893 8.12654L90.8726 25.768C90.6054 26.1689 90.3382 26.4362 89.9374 26.4362L86.1963 26.7035C85.7954 26.7035 85.5282 26.4362 85.3946 25.9017C85.261 25.3671 85.3946 24.8325 85.5282 24.2979C86.1963 22.4268 91.4071 14.9426 92.6096 13.3388C92.7432 13.2051 92.7432 12.9379 92.6096 12.8042L90.6054 10.3986C90.4718 10.2649 90.2046 10.2649 90.071 10.3986C89.1357 11.3341 85.6618 14.5416 82.1879 16.0117C81.9207 16.1454 81.7871 15.7444 81.9207 15.4772C82.856 13.8734 84.1921 11.8687 85.3946 10.6658C85.5282 10.5322 85.5282 10.2649 85.3946 10.2649L82.7224 8.66113C82.5888 8.52749 82.3215 8.66113 82.1879 8.79478C81.2527 9.99761 77.7788 14.5416 76.3091 17.4819C76.1754 17.7492 76.1754 18.0165 76.3091 18.2837L78.046 20.5558C78.1796 20.6894 78.4468 20.8231 78.5804 20.6894C79.5157 20.2885 82.4552 18.952 85.3946 16.8136C85.5282 16.68 85.6618 16.9473 85.5282 17.0809C83.9249 19.0856 80.8518 23.3624 80.451 26.0353C80.451 26.4362 80.1838 26.8372 79.7829 26.8372L61.4782 27.7727C61.211 27.7727 60.8102 27.5054 60.6766 27.2381C60.543 26.5699 60.2757 24.0306 61.3446 21.6249C61.4782 21.3576 61.7455 21.224 61.8791 21.4913L64.0169 23.6296C64.2841 23.8969 64.5513 23.8969 64.8185 23.7633C71.8999 20.5558 73.7704 14.007 74.1713 12.0023C74.3049 11.735 74.1713 11.3341 74.0377 11.2004L71.2318 8.39384C71.0982 8.26019 70.831 8.26019 70.5638 8.39384C57.2027 16.9473 53.5952 25.768 56.1338 28.3073L48.3844 28.7083C48.1172 28.7083 47.8499 28.5746 47.5827 28.3073L47.3155 28.04C47.1819 27.7727 47.0483 27.5054 47.3155 27.2381L61.7455 5.31995C61.8791 5.1863 61.7455 4.919 61.6119 4.919L54.5305 5.1863C54.3969 5.1863 54.2633 5.31995 54.1296 5.45359L35.0233 24.9661C34.8897 24.9661 34.7561 24.8325 34.7561 24.8325L47.9835 5.98819C48.1172 5.85454 47.9835 5.58724 47.8499 5.58724L41.0358 5.85454C40.9022 5.85454 40.7686 5.98819 40.6349 5.98819L4.02556 38.0636C3.89195 38.1972 4.02556 38.3309 4.15917 38.3309L225.686 33.9205C225.82 33.9205 225.953 33.9205 225.953 33.7869L227.824 32.1831V32.0494L86.5971 34.3214L233.836 29.2428C233.97 29.2428 234.104 29.2428 234.104 29.3765L234.638 29.7774C234.638 29.7774 234.638 29.9111 234.638 30.0447L229.828 34.0542V34.1878L236.375 31.5148C236.509 31.5148 236.509 31.5148 236.642 31.5148L239.314 33.9205H239.448L240.784 29.7774C240.784 29.6438 240.918 29.6438 240.918 29.6438L247.465 26.9708C247.465 27.1045 247.465 26.9708 247.465 26.9708ZM215.398 9.99761C215.532 9.99761 215.665 10.1313 215.665 10.3986C214.73 16.5463 208.317 20.8231 207.248 21.4913C207.248 21.4913 207.114 21.4913 207.114 21.3576C208.851 12.2696 214.062 10.3986 215.398 9.99761ZM62.4135 20.1548C65.0857 16.1454 69.3613 12.9379 70.6974 12.136C70.831 12.0023 71.0982 12.136 71.0982 12.4033C70.4302 17.8828 65.0857 20.1548 62.8144 20.9567C62.4135 20.9567 62.2799 20.5558 62.4135 20.1548Z" fill="#EDEAE1"/>
<path d="M61.6118 4.91887C61.7454 4.91887 61.879 5.18617 61.7454 5.31982L47.3154 27.238C47.1818 27.5053 47.1818 27.7726 47.3154 28.0399L47.5826 28.3072C47.8498 28.5745 48.1171 28.7081 48.3843 28.7081L56.1337 28.3072C53.5951 25.9015 57.2026 17.0808 70.5637 8.39371C70.6973 8.26006 70.8309 8.26006 70.9645 8.26006C71.0981 8.26006 71.2318 8.26006 71.3654 8.39371L74.1712 11.2003C74.3048 11.334 74.4384 11.7349 74.3048 12.0022C73.904 14.0069 72.0334 20.5556 64.952 23.7632C64.8184 23.7632 64.6848 23.8968 64.5512 23.8968C64.4176 23.8968 64.1504 23.8968 64.0168 23.7632L61.879 21.6248C61.879 21.6248 61.7454 21.4912 61.6118 21.4912C61.4782 21.4912 61.3445 21.6248 61.2109 21.7585C60.142 24.1641 60.2757 26.8371 60.5429 27.3716C60.6765 27.6389 60.9437 27.9062 61.2109 27.9062C61.2109 27.9062 61.2109 27.9062 61.3445 27.9062L79.6492 26.9707C80.0501 26.9707 80.3173 26.5698 80.3173 26.1688C80.7181 23.4959 83.7912 19.2192 85.3945 17.2144C85.5281 17.0808 85.3945 16.9471 85.2609 16.9471C85.2609 16.9471 85.2609 16.9471 85.1273 16.9471C82.1878 19.0855 79.2484 20.422 78.3131 20.8229H78.1795C78.0459 20.8229 77.9123 20.6893 77.7787 20.5556L76.0417 18.2836C75.9081 18.0163 75.9081 17.749 76.0417 17.4817C77.5115 14.4078 80.9854 9.86383 81.9206 8.79465C82.0542 8.661 82.1878 8.66101 82.1878 8.66101H82.3215L84.9937 10.2648C85.1273 10.3984 85.1273 10.5321 84.9937 10.6657C83.7912 11.8685 82.4551 13.8733 81.5198 15.477C81.3862 15.7443 81.5198 16.0116 81.6534 16.0116C81.6534 16.0116 81.6534 16.0116 81.787 16.0116C85.2609 14.5415 88.7348 11.334 89.6701 10.3984C89.8037 10.2648 89.8037 10.2648 89.9373 10.2648C90.0709 10.2648 90.2045 10.2648 90.2045 10.3984L92.2087 12.8041C92.3423 12.9377 92.3423 13.205 92.2087 13.3387C91.0062 14.9424 85.7953 22.4267 85.1273 24.2978C84.9937 24.8323 84.8601 25.5006 84.9937 25.9015C84.9937 26.3025 85.3945 26.7034 85.6617 26.7034L89.4028 26.4361C89.6701 26.4361 90.0709 26.1688 90.3381 25.7679L100.359 7.99277C100.493 7.72547 100.626 7.72547 100.76 7.72547H100.893L103.566 9.32924C103.699 9.46289 103.699 9.73018 103.566 9.86383L101.829 12.9377C101.695 13.0714 101.829 13.3387 101.962 13.3387C101.962 13.3387 101.962 13.3387 102.096 13.3387L105.303 11.0667C105.57 10.933 105.57 10.3984 105.303 10.3984C105.303 10.3984 105.169 10.3984 105.169 10.2648C104.902 10.1311 104.902 9.73018 105.169 9.46289L106.505 7.45818C106.639 7.32453 106.772 7.19088 106.906 7.19088C107.44 7.32453 108.108 7.32453 108.643 7.32453C112.918 7.32453 119.465 5.45346 121.336 4.78523C121.469 4.78523 121.469 5.05252 121.336 5.18617L118.396 10.1311C117.996 10.5321 117.595 10.933 117.194 10.933C115.19 11.2003 113.453 11.334 111.983 11.334C110.647 11.334 109.444 11.2003 108.643 11.0667C108.509 11.0667 108.509 11.334 108.509 11.4676L109.845 12.2695C109.979 12.4031 109.979 12.6704 109.845 12.9377L106.639 18.6846C106.505 18.8182 106.639 19.0855 106.772 19.0855C106.772 19.0855 106.772 19.0855 106.906 19.0855C108.776 17.2144 111.181 14.8088 112.785 13.3387C112.918 13.205 113.052 13.205 113.186 13.205C113.319 13.205 113.319 13.205 113.453 13.3387L116.125 15.0761C116.259 15.2097 116.259 15.3434 116.125 15.6107C115.457 16.9471 112.918 22.293 112.384 25.2333C112.25 25.6342 112.518 25.9015 112.651 25.9015L116.927 25.6342C117.194 25.6342 117.461 25.3669 117.595 24.966C120.133 13.3387 132.158 9.32924 133.494 8.9283H133.628L136.3 11.0667V11.2003C134.831 11.6012 125.611 14.2742 122.405 24.0305C122.271 24.2978 122.538 24.565 122.672 24.565H122.806C124.542 23.2286 129.352 19.2192 133.494 14.1405H133.628H133.762L136.167 16.8135C136.3 16.9471 136.3 17.0808 136.167 17.2144C135.632 18.2836 133.227 22.293 132.826 23.8968C132.826 24.0305 132.826 24.1641 132.826 24.2978L132.96 24.565C132.96 24.6987 133.094 24.6987 133.227 24.6987L136.167 24.565C136.3 24.565 136.567 24.4314 136.701 24.2978L141.11 19.4864L141.244 19.3528C141.377 19.3528 141.377 19.3528 141.377 19.4864L143.782 22.8276C143.782 22.9613 143.916 22.9613 143.916 22.9613C143.916 22.9613 144.05 22.9613 144.05 22.8276L152.066 13.0714C152.2 12.9377 152.066 12.6704 151.933 12.6704L142.981 13.205C142.847 13.205 142.847 13.0714 142.847 12.9377L144.985 8.9283C144.985 8.79465 145.119 8.79465 145.252 8.79465L156.208 8.26006C156.342 8.26006 156.475 8.39371 156.609 8.52735L158.88 11.7349C159.014 11.8685 159.014 12.0022 158.88 12.1358L154.471 22.1594C154.338 22.293 154.471 22.5603 154.471 22.694L155.273 23.6295L155.407 23.7632C155.407 23.7632 155.54 23.7632 155.54 23.6295L161.954 18.4173L162.087 18.2836C162.087 18.2836 162.221 18.2836 162.221 18.4173L164.759 21.8921L164.893 22.0257C164.893 22.0257 165.027 22.0257 165.027 21.8921L173.043 12.0022C173.177 11.8685 173.043 11.7349 172.91 11.7349L163.824 12.2695C163.69 12.2695 163.69 12.1358 163.69 12.0022L165.828 7.99277C165.962 7.85912 166.095 7.72547 166.229 7.72547L177.185 7.19088C177.319 7.19088 177.319 7.19088 177.452 7.32453L179.857 10.5321C179.991 10.6657 179.991 10.7994 179.857 10.933L175.448 20.9566C175.315 21.0902 175.448 21.3575 175.448 21.4912L176.116 22.293C176.25 22.4267 176.25 22.4267 176.384 22.4267H180.926C181.06 22.4267 181.194 22.293 181.327 22.0257C183.064 15.2097 190.012 7.32453 190.814 6.389C190.814 6.389 190.813 6.389 190.947 6.389C190.947 6.389 190.947 6.389 191.081 6.389L193.085 8.66101C193.218 8.79465 193.085 8.9283 193.085 8.9283C188.542 14.1405 186.672 18.8182 186.004 21.4912C186.004 21.6248 186.004 21.7585 186.137 21.7585C188.008 20.422 193.219 16.4126 198.563 9.06195L198.697 8.9283H198.83L201.369 11.334C201.502 11.4676 201.502 11.6012 201.369 11.7349C200.701 12.9377 197.36 18.5509 196.826 20.9566C196.692 21.3575 196.96 21.6248 197.227 21.6248L202.438 21.3575C202.571 21.3575 202.705 21.2239 202.705 21.0902C203.106 18.15 205.11 10.3984 214.463 5.58711C214.463 5.58711 214.463 5.58711 214.596 5.58711C214.596 5.58711 214.73 5.58711 214.73 5.72076L218.337 10.2648C218.471 10.3984 218.471 10.5321 218.471 10.6657C218.204 11.8685 216.734 17.0808 213.127 20.6893C212.993 20.8229 213.127 20.9566 213.127 20.9566L219.139 20.6893C219.273 20.6893 219.406 20.5556 219.54 20.422L227.557 5.18617C227.557 5.18617 227.556 5.05252 227.69 5.05252C227.69 5.05252 227.69 5.05252 227.824 5.05252L230.362 7.72547C230.362 7.72547 230.362 7.85912 230.362 7.99277L228.225 12.5368C228.225 12.6704 228.225 12.8041 228.358 12.8041C228.625 12.8041 228.893 12.8041 229.16 12.8041C229.828 12.8041 230.496 12.8041 231.298 12.6704C231.565 12.6704 231.832 12.4031 231.832 12.1358C233.569 8.26006 235.707 5.45346 236.241 4.78523L236.375 4.65158H236.508L238.646 7.32453C238.646 7.45818 238.646 7.45817 238.646 7.59182C232.901 14.9424 233.302 21.3575 233.569 22.8276C233.569 22.9613 233.569 23.0949 233.435 23.0949L229.561 23.2286C229.427 23.2286 229.427 23.0949 229.427 22.9613C229.427 20.5556 229.828 18.2836 230.496 16.0116C230.496 15.878 230.496 15.878 230.362 15.878C229.961 15.878 229.16 16.0116 228.225 16.0116C227.824 16.0116 227.423 16.0116 227.022 16.0116C226.888 16.0116 226.755 16.1453 226.755 16.2789L223.415 23.2286C223.281 23.4959 223.147 23.6295 222.88 23.6295L194.688 24.966C194.555 24.966 194.421 24.966 194.421 24.8323L192.417 22.4267C192.283 22.293 192.283 21.8921 192.417 21.7585L194.02 18.6846C194.02 18.5509 194.02 18.4173 193.887 18.4173C193.887 18.4173 193.887 18.4173 193.753 18.4173C191.615 20.6893 188.275 24.0305 185.87 25.3669C185.736 25.3669 185.603 25.5006 185.469 25.5006L173.845 25.9015C173.711 25.9015 173.711 25.9015 173.578 25.7679L171.039 22.5603C170.905 22.4267 170.905 22.1594 171.039 21.8921L175.582 12.6704C175.582 12.5368 175.582 12.5368 175.448 12.5368L165.16 26.1688C165.027 26.3025 165.027 26.3025 164.893 26.3025L162.354 26.4361C162.221 26.4361 162.221 26.4361 162.087 26.3025L160.617 24.2978C160.217 23.7632 159.949 23.3622 159.816 23.2286C159.816 23.2286 159.816 23.2286 159.682 23.2286C159.682 23.2286 159.682 23.2286 159.549 23.2286L157.01 26.4361C156.876 26.5698 156.743 26.5698 156.609 26.7034L152.467 26.8371C152.334 26.8371 152.334 26.8371 152.2 26.7034L149.661 23.4959C149.528 23.3622 149.528 23.0949 149.661 22.8276L154.204 13.606C154.204 13.4723 154.204 13.4723 154.071 13.4723L144.05 26.9707C143.916 27.1043 143.782 27.238 143.649 27.238L141.244 27.3716C141.11 27.3716 140.977 27.3717 140.977 27.238L139.641 25.5006C139.641 25.3669 139.507 25.3669 139.373 25.3669C139.24 25.3669 139.24 25.3669 139.106 25.5006L137.636 27.3716C137.503 27.5053 137.369 27.5053 137.236 27.5053L130.555 27.7726C130.421 27.7726 130.288 27.7726 130.154 27.6389L128.15 25.0996C128.016 24.966 128.016 24.6987 128.016 24.4314C128.284 23.4959 128.818 22.293 129.219 21.2239C129.219 21.0902 129.219 21.0902 129.085 21.0902L122.405 27.9062C122.271 28.0399 122.004 28.1735 121.87 28.1735L109.444 28.5745C109.177 28.5745 109.044 28.4408 108.91 28.1735L107.574 25.6342C107.44 25.5006 107.44 25.2333 107.574 24.966C107.841 24.0305 108.91 21.3575 110.781 17.749C110.914 17.6154 110.781 17.4817 110.647 17.4817C110.647 17.4817 110.647 17.4817 110.513 17.4817C109.044 19.0855 105.436 23.0949 101.561 28.8418C101.428 28.9754 101.294 29.1091 101.161 29.1091C101.027 29.1091 101.027 29.1091 100.893 28.9754L98.622 26.1688C98.4884 26.0352 98.4884 25.6342 98.622 25.5006L103.833 15.477C103.966 15.3434 103.833 15.0761 103.699 15.0761C102.898 15.6107 101.829 16.4126 100.626 17.3481C99.4237 18.2836 98.3548 19.6201 97.5531 21.2239L93.6784 28.8418C93.2775 29.51 93.4112 29.6436 89.8037 29.7773L43.3071 31.2474C43.0399 31.2474 42.5054 31.1138 42.3718 30.8465L40.6349 29.1091C40.5012 28.8418 40.3676 28.5745 40.6349 28.3072L52.9271 10.5321C52.9271 10.3984 52.9271 10.3984 52.7934 10.3984L31.6829 31.6484C31.4157 31.9157 31.1485 32.0493 30.8813 32.0493L25.0024 32.3166C24.8688 32.3166 24.7352 32.0493 24.8688 31.9157L39.1651 10.933C39.1651 10.7994 39.1651 10.7994 39.0315 10.7994L13.7791 34.455C13.6455 34.5886 13.7791 34.8559 13.9127 34.8559L237.711 27.3716C237.845 27.3716 237.978 27.3717 237.978 27.238L243.189 22.8276L241.853 26.9707C241.853 27.1043 241.853 27.1043 241.986 27.1043L247.465 26.9707V27.1043L241.051 29.6437C240.918 29.6437 240.918 29.7773 240.918 29.7773L239.581 33.9204C239.581 33.9204 239.581 33.9204 239.448 33.9204L236.776 31.5147H236.642C236.642 31.5147 236.642 31.5147 236.508 31.5147L229.962 34.1877C229.962 34.1877 229.962 34.1877 229.962 34.054L234.771 30.0446C234.905 30.0446 234.905 29.9109 234.771 29.7773L234.237 29.3764C234.103 29.2427 234.103 29.2427 233.97 29.2427L86.597 34.3213L227.957 32.0493C227.957 32.0493 228.091 32.0493 227.957 32.183L226.087 33.7867C225.953 33.9204 225.953 33.9204 225.82 33.9204L4.15908 38.3307C4.02547 38.3307 3.89186 38.0634 4.02547 38.0634L40.5012 5.98806C40.6349 5.85441 40.7685 5.8544 40.9021 5.8544L47.7162 5.58711C47.8498 5.58711 47.9835 5.85441 47.8498 5.98806L34.756 24.8323C34.756 24.966 34.756 24.966 34.8896 24.966L53.9959 5.45346C54.1296 5.31982 54.2632 5.18617 54.3968 5.18617L61.6118 4.91887ZM207.248 21.4912C208.317 20.8229 214.73 16.5462 215.665 10.3984C215.665 10.1311 215.532 9.99748 215.398 9.99748C214.062 10.3984 208.851 12.2695 207.248 21.4912C207.248 21.3575 207.248 21.4912 207.248 21.4912ZM62.6807 20.8229C65.0857 20.021 70.4301 17.749 71.0981 12.2695C71.0981 12.1358 70.9645 12.0022 70.8309 12.0022H70.6973C69.3612 12.9377 65.0856 16.0116 62.4134 20.021C62.2798 20.422 62.4134 20.8229 62.6807 20.8229ZM122.138 0.374861C121.737 0.374861 121.202 0.50851 120.801 0.642157C117.194 1.71134 112.384 2.91416 109.444 2.91416C108.91 2.91416 108.643 2.91416 108.509 2.78051C108.242 2.78051 107.975 2.64687 107.708 2.64687C106.505 2.64687 105.303 3.18146 104.367 3.98334L104.1 3.84969C103.298 3.44875 102.497 3.18146 101.695 3.18146C99.9581 3.18146 98.2212 4.25064 97.2859 5.8544L95.5489 8.9283L94.3464 7.59182C93.4112 6.52264 92.0751 5.8544 90.6053 5.8544C89.6701 5.8544 88.8684 6.1217 88.0667 6.52264C88.0667 6.52264 87.9331 6.52264 87.9331 6.389L85.2609 4.78523C84.4592 4.38428 83.6576 4.11699 82.8559 4.11699C81.3862 4.11699 79.9165 4.78523 78.9812 5.98806C78.5803 6.389 78.1795 7.05723 77.6451 7.85912L74.8392 5.18617C73.904 4.25064 72.7015 3.71605 71.3654 3.71605C70.4301 3.71605 69.3612 3.98334 68.5595 4.51793C67.8915 4.91887 67.357 5.31982 66.689 5.72076C66.8226 4.78523 66.689 3.71605 66.1545 2.78051C65.3529 1.31039 63.7495 0.241211 62.0126 0.241211H61.879L54.7976 0.508507C53.4615 0.508507 52.259 1.0431 51.4573 1.97863C50.6557 1.17675 49.4532 0.775803 48.2507 0.775803H48.1171L41.3029 1.0431C40.1004 1.0431 39.0315 1.57769 38.0962 2.37957L1.62048 34.455C0.150755 35.6578 -0.383688 37.6625 0.284366 39.5336C0.952421 41.4046 2.68936 42.7411 4.69353 42.7411C4.69353 42.7411 4.69353 42.7411 4.82714 42.7411L225.82 38.4644C226.488 38.4644 227.022 38.3307 227.69 38.0634C228.358 38.4644 229.026 38.598 229.828 38.598C230.362 38.598 231.03 38.4644 231.565 38.3307L235.573 36.727L236.241 37.3952C237.043 38.1971 238.245 38.598 239.314 38.598C241.318 38.598 243.055 37.3952 243.723 35.3905L244.525 33.1185L249.068 31.2474C251.072 30.4455 252.275 28.3072 251.874 26.1688C251.473 24.1641 249.736 22.5603 247.598 22.4267C247.465 21.6248 247.197 20.8229 246.796 20.1547C245.995 18.9519 244.525 18.2836 243.055 18.2836C241.986 18.2836 240.918 18.6846 240.116 19.3528L237.978 21.2239C238.112 19.2192 238.78 15.2097 242.254 10.7994C243.59 9.06194 243.59 6.65629 242.254 4.91887L240.116 2.24592C239.181 1.17674 237.845 0.508507 236.508 0.508507C235.039 0.508507 233.703 1.17674 232.901 2.24592C232.767 2.37957 232.5 2.78051 232.233 3.18146L231.431 2.37957C230.63 1.44404 229.293 0.909448 228.091 0.909448C226.354 0.909448 224.751 1.84498 223.949 3.44875L221.811 7.45818L218.471 3.31511C217.536 2.24593 216.2 1.57769 214.73 1.57769C213.928 1.57769 213.26 1.71133 212.592 2.11228C209.385 3.71605 206.58 5.85441 204.308 8.39371L202.037 6.25535C201.102 5.45346 200.033 5.05252 198.83 5.05252C197.895 5.05252 196.96 5.31982 196.158 5.8544L194.555 3.98334C193.619 3.04781 192.417 2.37957 191.081 2.37957C189.745 2.37957 188.542 2.91416 187.607 3.98334C187.072 4.65158 185.603 6.389 183.866 8.66101C183.866 8.52736 183.732 8.52736 183.732 8.39371L181.327 5.18617C180.392 3.98334 178.922 3.18146 177.452 3.18146C177.319 3.18146 177.319 3.18146 177.185 3.18146L166.229 3.71605C164.492 3.8497 162.889 4.78523 162.087 6.389L161.285 7.72547L160.217 6.25535C159.281 4.91887 157.812 4.11699 156.208 4.11699C156.075 4.11699 156.075 4.11699 155.941 4.11699L144.985 4.65158C143.248 4.78523 141.778 5.72076 140.977 7.19088L140.041 8.9283C139.774 8.52735 139.507 8.12641 139.106 7.72547L136.434 5.58711C135.632 4.91887 134.563 4.51793 133.361 4.51793C132.826 4.51793 132.426 4.65158 131.891 4.78523C131.089 5.05252 128.818 5.85441 126.146 7.32453C126.68 6.1217 126.68 4.65158 126.012 3.31511C125.478 1.44404 123.874 0.374861 122.138 0.374861Z" fill="#273370"/>
</svg>
