<svg width="60px" height="44px" viewBox="0 0 60 43" fill="currentColor" xmlns="http://www.w3.org/2000/svg"><path fill-rule="evenodd" clip-rule="evenodd" d="M18.665 15v.006c-.006 0-1.836-.006-2.324 1.72-.447 1.583-1.708 5.953-1.743 6.073h-.348s-1.29-4.467-1.743-6.079c-.488-1.726-2.324-1.72-2.324-1.72H6v13.133h4.183v-7.8h.349l2.44 7.8h2.905l2.44-7.794h.348v7.794h4.183V15h-4.183ZM33.944 15s-1.226.109-1.801 1.376L29.18 22.8h-.349V15h-4.183v13.133H28.6s1.284-.115 1.86-1.377l2.904-6.423h.349v7.8h4.183V15h-3.951ZM39.755 20.964v7.168h4.183v-4.186h4.531a4.522 4.522 0 0 0 4.27-2.982H39.756Z" fill="#4DB45E"></path><path fill-rule="evenodd" clip-rule="evenodd" d="M48.468 15h-9.301c.465 2.5 2.365 4.508 4.822 5.161.558.15 1.145.23 1.749.23h7.169c.064-.298.093-.602.093-.918C53 17.001 50.972 15 48.468 15Z" fill="url(#mir_svg__a)"></path><defs><linearGradient id="mir_svg__a" x1="39.168" y1="17.695" x2="53" y2="17.695" gradientUnits="userSpaceOnUse"><stop offset="0.3" stop-color="#00B4E6"></stop><stop offset="1" stop-color="#088CCB"></stop></linearGradient></defs></svg>