<svg width="64" height="64" viewBox="0 0 64 64" fill="none" xmlns="http://www.w3.org/2000/svg">
<path d="M64 60.4303C62.72 60.4303 61.696 59.4104 61.696 57.8805C61.696 56.6056 62.72 55.3307 64 55.3307C64 54.5657 64 52.2709 64 52.2709C62.72 52.2709 61.696 51.251 61.696 49.7211C61.696 48.4462 62.72 47.1713 64 47.1713V44.8765C62.72 44.8765 61.696 43.8566 61.696 42.3267C61.696 41.0518 62.72 39.7769 64 39.7769V37.4821C62.72 37.4821 61.696 36.4622 61.696 34.9323C61.696 33.6574 62.72 32.3825 64 32.3825V30.0877C62.72 30.0877 61.696 29.0677 61.696 27.5378C61.696 26.2629 62.72 24.988 64 24.988V22.9482C62.72 22.9482 61.696 21.9283 61.696 20.3984C61.696 19.1235 62.72 17.8486 64 17.8486V15.5538C62.72 15.5538 61.696 14.5339 61.696 13.004C61.696 11.7291 62.72 10.4542 64 10.4542V8.15936C62.72 8.15936 61.696 7.13944 61.696 5.60956C61.696 4.33466 62.72 3.05976 64 3.05976V0H61.184C61.184 1.2749 60.16 2.5498 58.88 2.5498C57.344 2.5498 56.32 1.2749 56.32 0H54.272C54.272 1.2749 53.248 2.5498 51.968 2.5498C51.712 2.5498 51.456 2.5498 51.2 2.29482C50.432 1.78486 49.92 1.01992 49.92 0H47.872C47.872 1.2749 46.848 2.5498 45.568 2.5498C45.312 2.5498 45.056 2.5498 44.8 2.29482C44.032 1.78486 43.52 1.01992 43.52 0H40.96C40.96 1.2749 39.936 2.5498 38.656 2.5498C38.4 2.5498 38.144 2.5498 37.888 2.29482C37.12 1.78486 36.608 1.01992 36.608 0H34.56C34.56 1.2749 33.536 2.5498 32.256 2.5498C30.976 2.5498 29.952 1.52988 29.952 0H27.904C27.904 1.01992 27.392 2.03984 26.624 2.29482C26.112 2.5498 25.6 2.5498 25.344 2.5498C24.064 2.5498 23.04 1.52988 23.04 0H20.992C20.992 0.76494 20.736 1.2749 20.224 1.78486C19.968 2.29482 19.456 2.5498 18.688 2.5498C17.408 2.5498 16.384 1.52988 16.384 0H14.336V0.25498C14.08 1.52988 13.312 2.5498 12.032 2.5498C10.752 2.5498 9.728 1.2749 9.728 0H7.68C7.68 1.2749 6.656 2.5498 5.376 2.5498C4.096 2.5498 3.072 1.2749 3.072 0H0V3.31474C1.28 3.31474 2.304 4.33466 2.304 5.86454C2.304 7.13944 1.28 8.41434 0 8.41434V10.7092C1.28 10.7092 2.304 11.7291 2.304 13.259C2.304 14.5339 1.28 15.8088 0 15.8088V17.8486C1.28 17.8486 2.304 18.8685 2.304 20.3984C2.304 21.6733 1.28 22.9482 0 22.9482V25.243C1.28 25.243 2.304 26.2629 2.304 27.7928C2.304 29.0677 1.28 30.3426 0 30.3426V32.6375C1.28 32.6375 2.304 33.6574 2.304 35.1873C2.304 36.7171 1.28 37.7371 0 37.7371V40.0319C1.28 40.0319 2.304 41.0518 2.304 42.5817C2.304 43.8566 1.28 45.1315 0 45.1315V47.4263C1.28 47.4263 2.304 48.4462 2.304 49.9761C2.304 51.251 1.28 52.5259 0 52.5259C0 52.5259 0 55.0757 0 55.5857C1.28 55.5857 2.304 56.6056 2.304 58.1355C2.304 59.4104 1.28 60.6853 0 60.6853C0 60.6853 0 63.2351 0 63.745H3.072C3.072 62.4701 4.096 61.1952 5.376 61.1952C6.656 61.1952 7.68 62.2151 7.68 63.745H7.936H9.984C9.984 62.4701 11.008 61.1952 12.288 61.1952C12.544 61.1952 12.8 61.1952 13.056 61.4502C13.824 61.9602 14.336 62.7251 14.336 63.745H14.592H16.64C16.64 62.4701 17.664 61.1952 18.944 61.1952C19.2 61.1952 19.456 61.1952 19.712 61.4502C20.48 61.9602 20.992 62.7251 20.992 63.745H21.248H23.296C23.296 62.4701 24.32 61.1952 25.6 61.1952C26.88 61.1952 27.648 62.4701 27.648 63.745H27.904H29.952C29.952 62.4701 30.976 61.1952 32.256 61.1952C33.536 61.1952 34.56 62.2151 34.56 63.745H36.608C36.608 62.4701 37.376 61.7052 38.4 61.4502C38.656 61.4502 38.656 61.4502 38.912 61.4502C40.192 61.4502 41.216 62.4701 41.216 64H43.264C43.264 62.9801 43.776 62.2151 44.544 61.7052C44.8 61.7052 45.056 61.4502 45.312 61.4502C46.592 61.4502 47.616 62.4701 47.616 64H49.664C49.664 63.2351 49.92 62.7251 50.432 62.2151C50.944 61.7052 51.456 61.4502 51.968 61.4502C53.248 61.4502 54.272 62.4701 54.272 64H56.32H56.576C56.576 62.7251 57.6 61.4502 58.88 61.4502C60.16 61.4502 61.184 62.4701 61.184 64H64C64 62.9801 64 60.4303 64 60.4303ZM59.392 59.1554H56.32H7.936H4.608V5.0996H7.68H56.32H59.392V59.1554Z" fill="white"/>
<path d="M59.52 4.47998H4.47998V59.52H59.52V4.47998Z" fill="#3B64AE"/>
<path d="M46.336 28.3028C46.336 28.3028 40.96 26.2629 35.84 28.8127C35.84 28.8127 37.888 27.0279 42.24 26.008L41.728 25.498C41.728 25.498 41.984 25.243 43.52 25.753L48.128 24.988L47.36 24.2231C47.36 24.2231 48.128 24.2231 49.152 24.988C49.152 24.988 50.688 24.4781 54.784 24.4781C54.784 24.4781 45.824 15.0438 34.816 26.5179C34.816 26.5179 36.096 11.2191 22.016 11.9841L25.856 16.0637C25.856 16.0637 26.112 15.8088 27.392 16.5737L26.112 16.8287L29.952 21.6733C29.952 21.6733 30.464 21.6733 31.232 22.1833L30.208 22.4382C30.208 22.4382 31.744 24.7331 32 27.2829C32 27.2829 23.04 14.5339 10.496 26.2629L17.92 27.0279C17.92 27.0279 17.664 26.5179 19.456 25.753L18.944 27.0279L24.064 27.7928C24.064 27.7928 24.32 27.0279 26.368 27.2829L24.832 28.0478C24.832 28.0478 28.928 28.5578 30.208 29.8327C30.208 29.8327 16.896 26.008 10.24 40.5418L17.152 38.502C17.152 38.502 17.664 36.7171 18.176 36.2072L18.432 38.247L23.296 36.2072C23.296 36.2072 23.296 34.4223 23.808 34.1673L24.32 35.6972C24.32 35.6972 27.136 33.6574 29.952 32.8924C27.392 37.992 23.296 47.4263 20.992 59.1554H27.392C27.648 51.506 28.928 42.5817 32.512 33.4024C33.024 34.1673 33.536 35.9522 33.792 39.7769L34.816 39.5219C34.56 39.7769 34.048 40.5418 33.792 40.5418L34.56 45.6414L35.84 45.1315C35.84 45.1315 36.096 45.6414 34.816 46.4064L36.352 53.2908C36.352 53.2908 44.288 46.1514 34.816 32.6374C34.816 32.6374 38.144 35.9522 39.936 39.0119L40.448 37.737C40.448 37.737 40.96 37.737 40.192 39.7769L43.008 44.3665L44.032 42.8366C44.032 42.8366 44.544 43.8566 43.776 45.1315L46.336 50.996C46.336 50.996 54.528 37.992 35.584 31.1076C35.584 31.1076 39.168 31.3625 41.984 32.3825V31.6175C41.984 31.6175 42.496 31.8725 43.008 32.8924L47.104 34.1673L47.36 32.8924C47.36 32.8924 47.872 33.6574 48.128 34.4223L54.528 37.737C54.784 37.2271 55.296 30.5976 46.336 28.3028Z" fill="#193470"/>
</svg>
