<svg width="1em" height="1em" viewBox="0 0 113 113" fill="none" xmlns="http://www.w3.org/2000/svg" class="sc-604212e3-0 cZZAKS"><g clip-path="url(#qr-redirect_svg__a)"><path d="M113 0H0v113h113V0Z" fill="#fff"></path><path d="M37.666 6.849h-3.424v3.424h3.424V6.849ZM41.09 6.849h-3.424v3.424h3.425V6.849ZM44.515 6.849h-3.424v3.424h3.424V6.849ZM47.94 6.849h-3.425v3.424h3.424V6.849ZM61.636 6.849h-3.424v3.424h3.424V6.849ZM65.06 6.849h-3.424v3.424h3.424V6.849ZM68.485 6.849H65.06v3.424h3.424V6.849ZM71.91 6.849h-3.425v3.424h3.424V6.849ZM75.333 6.849H71.91v3.424h3.424V6.849Z" fill="#000"></path><path d="M78.757 6.849h-3.424v3.424h3.424V6.849ZM37.666 10.273h-3.424v3.424h3.424v-3.424ZM41.09 10.273h-3.424v3.424h3.425v-3.424ZM44.515 10.273h-3.424v3.424h3.424v-3.424ZM47.94 10.273h-3.425v3.424h3.424v-3.424ZM58.212 10.273h-3.424v3.424h3.424v-3.424ZM61.636 10.273h-3.424v3.424h3.424v-3.424ZM68.485 10.273H65.06v3.424h3.424v-3.424ZM71.91 10.273h-3.425v3.424h3.424v-3.424ZM78.757 10.273h-3.424v3.424h3.424v-3.424ZM41.09 13.697h-3.424v3.424h3.425v-3.424ZM51.364 13.697h-3.425v3.424h3.425v-3.424ZM54.788 13.697h-3.424v3.424h3.424v-3.424ZM58.212 13.697h-3.424v3.424h3.424v-3.424ZM61.636 13.697h-3.424v3.424h3.424v-3.424ZM71.91 13.697h-3.425v3.424h3.424v-3.424ZM78.757 13.697h-3.424v3.424h3.424v-3.424ZM37.666 17.121h-3.424v3.425h3.424V17.12Z" fill="#000"></path><path d="M41.09 17.121h-3.424v3.425h3.425V17.12ZM65.06 17.121h-3.424v3.425h3.424V17.12ZM68.485 17.121H65.06v3.425h3.424V17.12ZM75.333 17.121H71.91v3.425h3.424V17.12ZM41.09 20.546h-3.424v3.424h3.425v-3.424ZM47.94 20.546h-3.425v3.424h3.424v-3.424Z" fill="#000"></path><path d="M51.364 20.546h-3.425v3.424h3.425v-3.424ZM54.788 20.546h-3.424v3.424h3.424v-3.424ZM68.485 20.546H65.06v3.424h3.424v-3.424ZM75.333 20.546H71.91v3.424h3.424v-3.424Z" fill="#000"></path><path d="M78.757 20.546h-3.424v3.424h3.424v-3.424ZM41.09 23.97h-3.424v3.424h3.425V23.97ZM44.515 23.97h-3.424v3.424h3.424V23.97ZM47.94 23.97h-3.425v3.424h3.424V23.97Z" fill="#000"></path><path d="M51.364 23.97h-3.425v3.424h3.425V23.97ZM58.212 23.97h-3.424v3.424h3.424V23.97ZM71.91 23.97h-3.425v3.424h3.424V23.97ZM75.333 23.97H71.91v3.424h3.424V23.97Z" fill="#000"></path><path d="M78.757 23.97h-3.424v3.424h3.424V23.97ZM37.666 27.394h-3.424v3.424h3.424v-3.424ZM44.515 27.394h-3.424v3.424h3.424v-3.424ZM51.364 27.394h-3.425v3.424h3.425v-3.424ZM58.212 27.394h-3.424v3.424h3.424v-3.424ZM65.06 27.394h-3.424v3.424h3.424v-3.424ZM71.91 27.394h-3.425v3.424h3.424v-3.424ZM78.757 27.394h-3.424v3.424h3.424v-3.424ZM37.666 30.818h-3.424v3.424h3.424v-3.424ZM44.515 30.818h-3.424v3.424h3.424v-3.424ZM51.364 30.818h-3.425v3.424h3.425v-3.424ZM54.788 30.818h-3.424v3.424h3.424v-3.424ZM58.212 30.818h-3.424v3.424h3.424v-3.424ZM68.485 30.818H65.06v3.424h3.424v-3.424ZM71.91 30.818h-3.425v3.424h3.424v-3.424ZM75.333 30.818H71.91v3.424h3.424v-3.424Z" fill="#000"></path><path d="M78.757 30.818h-3.424v3.424h3.424v-3.424ZM10.273 34.242H6.848v3.425h3.425v-3.425ZM17.12 34.242h-3.424v3.425h3.425v-3.425ZM20.545 34.242h-3.424v3.425h3.424v-3.425ZM27.394 34.242H23.97v3.425h3.424v-3.425ZM30.818 34.242h-3.424v3.425h3.424v-3.425Z" fill="#000"></path><path d="M34.242 34.242h-3.424v3.425h3.424v-3.425ZM47.94 34.242h-3.425v3.425h3.424v-3.425ZM54.788 34.242h-3.424v3.425h3.424v-3.425ZM58.212 34.242h-3.424v3.425h3.424v-3.425ZM65.06 34.242h-3.424v3.425h3.424v-3.425ZM68.485 34.242H65.06v3.425h3.424v-3.425ZM85.606 34.242H82.18v3.425h3.425v-3.425ZM95.879 34.242h-3.425v3.425h3.425v-3.425ZM102.727 34.242h-3.424v3.425h3.424v-3.425Z" fill="#000"></path><path d="M106.151 34.242h-3.424v3.425h3.424v-3.425ZM10.273 37.667H6.848v3.424h3.425v-3.424ZM13.697 37.667h-3.424v3.424h3.424v-3.424ZM23.97 37.667h-3.425v3.424h3.425v-3.424ZM27.394 37.667H23.97v3.424h3.424v-3.424ZM34.242 37.667h-3.424v3.424h3.424v-3.424ZM44.515 37.667h-3.424v3.424h3.424v-3.424ZM61.636 37.667h-3.424v3.424h3.424v-3.424ZM65.06 37.667h-3.424v3.424h3.424v-3.424ZM68.485 37.667H65.06v3.424h3.424v-3.424ZM71.91 37.667h-3.425v3.424h3.424v-3.424ZM75.333 37.667H71.91v3.424h3.424v-3.424Z" fill="#000"></path><path d="M78.757 37.667h-3.424v3.424h3.424v-3.424ZM82.182 37.667h-3.424v3.424h3.424v-3.424Z" fill="#000"></path><path d="M85.606 37.667H82.18v3.424h3.425v-3.424ZM89.03 37.667h-3.424v3.424h3.424v-3.424ZM92.454 37.667H89.03v3.424h3.424v-3.424ZM106.151 37.667h-3.424v3.424h3.424v-3.424ZM17.12 41.09h-3.424v3.425h3.425v-3.424ZM20.545 41.09h-3.424v3.425h3.424v-3.424ZM27.394 41.09H23.97v3.425h3.424v-3.424ZM30.818 41.09h-3.424v3.425h3.424v-3.424ZM41.09 41.09h-3.424v3.425h3.425v-3.424ZM47.94 41.09h-3.425v3.425h3.424v-3.424ZM58.212 41.09h-3.424v3.425h3.424v-3.424ZM61.636 41.09h-3.424v3.425h3.424v-3.424ZM71.91 41.09h-3.425v3.425h3.424v-3.424ZM78.757 41.09h-3.424v3.425h3.424v-3.424Z" fill="#000"></path><path d="M82.182 41.09h-3.424v3.425h3.424v-3.424Z" fill="#000"></path><path d="M85.606 41.09H82.18v3.425h3.425v-3.424ZM89.03 41.09h-3.424v3.425h3.424v-3.424ZM99.303 41.09h-3.424v3.425h3.424v-3.424ZM102.727 41.09h-3.424v3.425h3.424v-3.424ZM10.273 44.515H6.848v3.424h3.425v-3.424ZM20.545 44.515h-3.424v3.424h3.424v-3.424Z" fill="#000"></path><path d="M23.97 44.515h-3.425v3.424h3.425v-3.424ZM34.242 44.515h-3.424v3.424h3.424v-3.424ZM51.364 44.515h-3.425v3.424h3.425v-3.424ZM54.788 44.515h-3.424v3.424h3.424v-3.424ZM58.212 44.515h-3.424v3.424h3.424v-3.424ZM61.636 44.515h-3.424v3.424h3.424v-3.424ZM71.91 44.515h-3.425v3.424h3.424v-3.424ZM78.757 44.515h-3.424v3.424h3.424v-3.424ZM82.182 44.515h-3.424v3.424h3.424v-3.424ZM89.03 44.515h-3.424v3.424h3.424v-3.424ZM106.151 44.515h-3.424v3.424h3.424v-3.424ZM13.697 47.94h-3.424v3.424h3.424v-3.425Z" fill="#000"></path><path d="M17.12 47.94h-3.424v3.424h3.425v-3.425ZM20.545 47.94h-3.424v3.424h3.424v-3.425Z" fill="#000"></path><path d="M23.97 47.94h-3.425v3.424h3.425v-3.425ZM30.818 47.94h-3.424v3.424h3.424v-3.425ZM37.666 47.94h-3.424v3.424h3.424v-3.425ZM44.515 47.94h-3.424v3.424h3.424v-3.425ZM47.94 47.94h-3.425v3.424h3.424v-3.425ZM65.06 47.94h-3.424v3.424h3.424v-3.425ZM68.485 47.94H65.06v3.424h3.424v-3.425ZM75.333 47.94H71.91v3.424h3.424v-3.425ZM82.182 47.94h-3.424v3.424h3.424v-3.425ZM89.03 47.94h-3.424v3.424h3.424v-3.425ZM95.879 47.94h-3.425v3.424h3.425v-3.425Z" fill="#000"></path><path d="M99.303 47.94h-3.424v3.424h3.424v-3.425ZM10.273 51.364H6.848v3.424h3.425v-3.424ZM13.697 51.364h-3.424v3.424h3.424v-3.424ZM20.545 51.364h-3.424v3.424h3.424v-3.424Z" fill="#000"></path><path d="M23.97 51.364h-3.425v3.424h3.425v-3.424ZM34.242 51.364h-3.424v3.424h3.424v-3.424ZM37.666 51.364h-3.424v3.424h3.424v-3.424ZM41.09 51.364h-3.424v3.424h3.425v-3.424ZM47.94 51.364h-3.425v3.424h3.424v-3.424Z" fill="#000"></path><path d="M51.364 51.364h-3.425v3.424h3.425v-3.424ZM54.788 51.364h-3.424v3.424h3.424v-3.424ZM68.485 51.364H65.06v3.424h3.424v-3.424ZM75.333 51.364H71.91v3.424h3.424v-3.424ZM85.606 51.364H82.18v3.424h3.425v-3.424ZM99.303 51.364h-3.424v3.424h3.424v-3.424ZM102.727 51.364h-3.424v3.424h3.424v-3.424Z" fill="#000"></path><path d="M106.151 51.364h-3.424v3.424h3.424v-3.424ZM13.697 54.788h-3.424v3.424h3.424v-3.424ZM23.97 54.788h-3.425v3.424h3.425v-3.424ZM30.818 54.788h-3.424v3.424h3.424v-3.424Z" fill="#000"></path><path d="M34.242 54.788h-3.424v3.424h3.424v-3.424ZM37.666 54.788h-3.424v3.424h3.424v-3.424ZM41.09 54.788h-3.424v3.424h3.425v-3.424ZM58.212 54.788h-3.424v3.424h3.424v-3.424ZM75.333 54.788H71.91v3.424h3.424v-3.424Z" fill="#000"></path><path d="M78.757 54.788h-3.424v3.424h3.424v-3.424ZM82.182 54.788h-3.424v3.424h3.424v-3.424ZM89.03 54.788h-3.424v3.424h3.424v-3.424ZM92.454 54.788H89.03v3.424h3.424v-3.424ZM99.303 54.788h-3.424v3.424h3.424v-3.424ZM102.727 54.788h-3.424v3.424h3.424v-3.424Z" fill="#000"></path><path d="M106.151 54.788h-3.424v3.424h3.424v-3.424ZM17.12 58.212h-3.424v3.424h3.425v-3.424ZM20.545 58.212h-3.424v3.424h3.424v-3.424Z" fill="#000"></path><path d="M23.97 58.212h-3.425v3.424h3.425v-3.424ZM34.242 58.212h-3.424v3.424h3.424v-3.424ZM47.94 58.212h-3.425v3.424h3.424v-3.424Z" fill="#000"></path><path d="M51.364 58.212h-3.425v3.424h3.425v-3.424ZM54.788 58.212h-3.424v3.424h3.424v-3.424ZM61.636 58.212h-3.424v3.424h3.424v-3.424ZM82.182 58.212h-3.424v3.424h3.424v-3.424Z" fill="#000"></path><path d="M85.606 58.212H82.18v3.424h3.425v-3.424ZM89.03 58.212h-3.424v3.424h3.424v-3.424ZM102.727 58.212h-3.424v3.424h3.424v-3.424ZM20.545 61.636h-3.424v3.425h3.424v-3.425ZM27.394 61.636H23.97v3.425h3.424v-3.425ZM30.818 61.636h-3.424v3.425h3.424v-3.425Z" fill="#000"></path><path d="M34.242 61.636h-3.424v3.425h3.424v-3.425ZM47.94 61.636h-3.425v3.425h3.424v-3.425ZM75.333 61.636H71.91v3.425h3.424v-3.425Z" fill="#000"></path><path d="M78.757 61.636h-3.424v3.425h3.424v-3.425ZM82.182 61.636h-3.424v3.425h3.424v-3.425ZM89.03 61.636h-3.424v3.425h3.424v-3.425ZM92.454 61.636H89.03v3.425h3.424v-3.425ZM95.879 61.636h-3.425v3.425h3.425v-3.425ZM102.727 61.636h-3.424v3.425h3.424v-3.425ZM13.697 65.06h-3.424v3.425h3.424V65.06Z" fill="#000"></path><path d="M17.12 65.06h-3.424v3.425h3.425V65.06ZM23.97 65.06h-3.425v3.425h3.425V65.06ZM27.394 65.06H23.97v3.425h3.424V65.06ZM44.515 65.06h-3.424v3.425h3.424V65.06ZM54.788 65.06h-3.424v3.425h3.424V65.06ZM71.91 65.06h-3.425v3.425h3.424V65.06ZM78.757 65.06h-3.424v3.425h3.424V65.06ZM89.03 65.06h-3.424v3.425h3.424V65.06ZM95.879 65.06h-3.425v3.425h3.425V65.06Z" fill="#000"></path><path d="M99.303 65.06h-3.424v3.425h3.424V65.06ZM102.727 65.06h-3.424v3.425h3.424V65.06ZM10.273 68.485H6.848v3.424h3.425v-3.424ZM17.12 68.485h-3.424v3.424h3.425v-3.424ZM20.545 68.485h-3.424v3.424h3.424v-3.424Z" fill="#000"></path><path d="M23.97 68.485h-3.425v3.424h3.425v-3.424ZM27.394 68.485H23.97v3.424h3.424v-3.424ZM30.818 68.485h-3.424v3.424h3.424v-3.424Z" fill="#000"></path><path d="M34.242 68.485h-3.424v3.424h3.424v-3.424ZM41.09 68.485h-3.424v3.424h3.425v-3.424ZM44.515 68.485h-3.424v3.424h3.424v-3.424ZM47.94 68.485h-3.425v3.424h3.424v-3.424Z" fill="#000"></path><path d="M51.364 68.485h-3.425v3.424h3.425v-3.424ZM68.485 68.485H65.06v3.424h3.424v-3.424ZM85.606 68.485H82.18v3.424h3.425v-3.424ZM92.454 68.485H89.03v3.424h3.424v-3.424ZM99.303 68.485h-3.424v3.424h3.424v-3.424ZM17.12 71.91h-3.424v3.423h3.425V71.91ZM20.545 71.91h-3.424v3.423h3.424V71.91ZM27.394 71.91H23.97v3.423h3.424V71.91ZM34.242 71.91h-3.424v3.423h3.424V71.91ZM37.666 71.91h-3.424v3.423h3.424V71.91ZM47.94 71.91h-3.425v3.423h3.424V71.91ZM61.636 71.91h-3.424v3.423h3.424V71.91ZM65.06 71.91h-3.424v3.423h3.424V71.91ZM68.485 71.91H65.06v3.423h3.424V71.91ZM71.91 71.91h-3.425v3.423h3.424V71.91ZM82.182 71.91h-3.424v3.423h3.424V71.91Z" fill="#000"></path><path d="M85.606 71.91H82.18v3.423h3.425V71.91ZM92.454 71.91H89.03v3.423h3.424V71.91ZM99.303 71.91h-3.424v3.423h3.424V71.91ZM13.697 75.333h-3.424v3.425h3.424v-3.425Z" fill="#000"></path><path d="M17.12 75.333h-3.424v3.425h3.425v-3.425ZM20.545 75.333h-3.424v3.425h3.424v-3.425ZM30.818 75.333h-3.424v3.425h3.424v-3.425ZM41.09 75.333h-3.424v3.425h3.425v-3.425ZM51.364 75.333h-3.425v3.425h3.425v-3.425ZM54.788 75.333h-3.424v3.425h3.424v-3.425ZM61.636 75.333h-3.424v3.425h3.424v-3.425ZM68.485 75.333H65.06v3.425h3.424v-3.425ZM71.91 75.333h-3.425v3.425h3.424v-3.425ZM78.757 75.333h-3.424v3.425h3.424v-3.425ZM82.182 75.333h-3.424v3.425h3.424v-3.425Z" fill="#000"></path><path d="M85.606 75.333H82.18v3.425h3.425v-3.425ZM89.03 75.333h-3.424v3.425h3.424v-3.425ZM92.454 75.333H89.03v3.425h3.424v-3.425ZM95.879 75.333h-3.425v3.425h3.425v-3.425Z" fill="#000"></path><path d="M99.303 75.333h-3.424v3.425h3.424v-3.425ZM37.666 78.758h-3.424v3.424h3.424v-3.424ZM47.94 78.758h-3.425v3.424h3.424v-3.424ZM54.788 78.758h-3.424v3.424h3.424v-3.424ZM58.212 78.758h-3.424v3.424h3.424v-3.424ZM61.636 78.758h-3.424v3.424h3.424v-3.424ZM68.485 78.758H65.06v3.424h3.424v-3.424ZM71.91 78.758h-3.425v3.424h3.424v-3.424ZM78.757 78.758h-3.424v3.424h3.424v-3.424ZM92.454 78.758H89.03v3.424h3.424v-3.424ZM95.879 78.758h-3.425v3.424h3.425v-3.424Z" fill="#000"></path><path d="M99.303 78.758h-3.424v3.424h3.424v-3.424ZM102.727 78.758h-3.424v3.424h3.424v-3.424Z" fill="#000"></path><path d="M106.151 78.758h-3.424v3.424h3.424v-3.424ZM37.666 82.182h-3.424v3.424h3.424v-3.424ZM41.09 82.182h-3.424v3.424h3.425v-3.424ZM44.515 82.182h-3.424v3.424h3.424v-3.424ZM51.364 82.182h-3.425v3.424h3.425v-3.424ZM54.788 82.182h-3.424v3.424h3.424v-3.424ZM65.06 82.182h-3.424v3.424h3.424v-3.424ZM68.485 82.182H65.06v3.424h3.424v-3.424ZM71.91 82.182h-3.425v3.424h3.424v-3.424ZM75.333 82.182H71.91v3.424h3.424v-3.424Z" fill="#000"></path><path d="M78.757 82.182h-3.424v3.424h3.424v-3.424ZM85.606 82.182H82.18v3.424h3.425v-3.424ZM92.454 82.182H89.03v3.424h3.424v-3.424ZM95.879 82.182h-3.425v3.424h3.425v-3.424ZM102.727 82.182h-3.424v3.424h3.424v-3.424ZM37.666 85.606h-3.424v3.424h3.424v-3.424ZM41.09 85.606h-3.424v3.424h3.425v-3.424ZM44.515 85.606h-3.424v3.424h3.424v-3.424ZM65.06 85.606h-3.424v3.424h3.424v-3.424ZM71.91 85.606h-3.425v3.424h3.424v-3.424Z" fill="#000"></path><path d="M78.757 85.606h-3.424v3.424h3.424v-3.424ZM92.454 85.606H89.03v3.424h3.424v-3.424ZM95.879 85.606h-3.425v3.424h3.425v-3.424ZM102.727 85.606h-3.424v3.424h3.424v-3.424Z" fill="#000"></path><path d="M106.151 85.606h-3.424v3.424h3.424v-3.424ZM41.09 89.03h-3.424v3.424h3.425V89.03ZM47.94 89.03h-3.425v3.425h3.424V89.03Z" fill="#000"></path><path d="M51.364 89.03h-3.425v3.425h3.425V89.03ZM58.212 89.03h-3.424v3.425h3.424V89.03ZM61.636 89.03h-3.424v3.424h3.424V89.03ZM78.757 89.03h-3.424v3.425h3.424V89.03ZM82.182 89.03h-3.424v3.425h3.424V89.03Z" fill="#000"></path><path d="M85.606 89.03H82.18v3.424h3.425V89.03ZM89.03 89.03h-3.424v3.424h3.424V89.03ZM92.454 89.03H89.03v3.425h3.424V89.03ZM99.303 89.03h-3.424v3.425h3.424V89.03ZM106.151 89.03h-3.424v3.424h3.424V89.03ZM37.666 92.454h-3.424v3.425h3.424v-3.425ZM41.09 92.454h-3.424v3.425h3.425v-3.425ZM44.515 92.455h-3.424v3.424h3.424v-3.424ZM51.364 92.455h-3.425v3.424h3.425v-3.424ZM58.212 92.455h-3.424v3.424h3.424v-3.424ZM65.06 92.454h-3.424v3.425h3.424v-3.425ZM68.485 92.455H65.06v3.424h3.424v-3.424ZM71.91 92.455h-3.425v3.424h3.424v-3.424ZM75.333 92.455H71.91v3.424h3.424v-3.424Z" fill="#000"></path><path d="M78.757 92.455h-3.424v3.424h3.424v-3.424ZM82.182 92.455h-3.424v3.424h3.424v-3.424ZM89.03 92.454h-3.424v3.425h3.424v-3.425ZM92.454 92.455H89.03v3.424h3.424v-3.424ZM95.879 92.455h-3.425v3.424h3.425v-3.424ZM102.727 92.455h-3.424v3.424h3.424v-3.424ZM37.666 95.879h-3.424v3.424h3.424v-3.424ZM51.364 95.879h-3.425v3.424h3.425v-3.424ZM54.788 95.879h-3.424v3.424h3.424v-3.424ZM58.212 95.879h-3.424v3.424h3.424v-3.424ZM61.636 95.879h-3.424v3.424h3.424v-3.424ZM65.06 95.879h-3.424v3.424h3.424v-3.424ZM71.91 95.879h-3.425v3.424h3.424v-3.424ZM89.03 95.879h-3.424v3.424h3.424v-3.424ZM99.303 95.879h-3.424v3.424h3.424v-3.424ZM106.151 95.879h-3.424v3.424h3.424v-3.424Z" fill="#000"></path><path d="M47.94 99.303h-3.425v3.424h3.424v-3.424ZM54.788 99.303h-3.424v3.424h3.424v-3.424ZM65.06 99.303h-3.424v3.424h3.424v-3.424ZM71.91 99.303h-3.425v3.424h3.424v-3.424ZM78.757 99.303h-3.424v3.424h3.424v-3.424ZM85.606 99.303H82.18v3.424h3.425v-3.424ZM95.879 99.303h-3.425v3.424h3.425v-3.424ZM102.727 99.303h-3.424v3.424h3.424v-3.424ZM37.666 102.727h-3.424v3.425h3.424v-3.425ZM41.09 102.727h-3.424v3.425h3.425v-3.425ZM44.515 102.727h-3.424v3.425h3.424v-3.425ZM58.212 102.727h-3.424v3.425h3.424v-3.425ZM61.636 102.727h-3.424v3.425h3.424v-3.425ZM68.485 102.727H65.06v3.425h3.424v-3.425ZM75.333 102.727H71.91v3.425h3.424v-3.425Z" fill="#000"></path><path d="M78.757 102.727h-3.424v3.425h3.424v-3.425ZM85.606 102.727H82.18v3.425h3.425v-3.425ZM92.454 102.727H89.03v3.425h3.424v-3.425ZM102.727 102.727h-3.424v3.425h3.424v-3.425ZM27.223 6.849H6.848V30.818h23.97V6.85h-3.595Zm0 20.374h-16.78V10.444h16.78v16.779ZM102.556 6.849H82.181V30.818h23.97V6.85h-3.595Zm0 20.374h-16.78V10.444h16.78v16.779ZM27.223 82.182H6.848v23.97h23.97v-23.97h-3.595Zm0 20.374h-16.78V85.777h16.78v16.779Z" fill="#000"></path><path d="M23.97 13.697H13.696V23.97h10.272V13.697ZM99.303 13.697H89.03V23.97h10.273V13.697ZM23.97 89.03H13.696v10.273h10.272V89.03Z" fill="#000"></path></g><defs><clipPath id="qr-redirect_svg__a"><path fill="#fff" d="M0 0h113v113H0z"></path></clipPath></defs></svg>