<svg width="16" height="16" viewBox="0 0 16 16" fill="none" xmlns="http://www.w3.org/2000/svg"><circle cx="8" cy="8" r="8" fill="currentColor"></circle><path d="M6 6.066V4.742c.053-.057.125-.124.217-.202.1-.084.306-.194.623-.328A2.44 2.44 0 0 1 7.827 4c.678 0 1.208.19 1.59.572.389.375.583.873.583 1.494 0 .29-.066.572-.198.848a3.06 3.06 0 0 1-.464.72c-.184.212-.368.42-.553.626-.184.197-.342.42-.474.667-.125.24-.188.488-.188.742H7.037c0-.304.06-.597.178-.88.118-.29.26-.544.425-.763.17-.226.342-.441.513-.646.171-.205.316-.413.435-.625.118-.219.177-.43.177-.636 0-.29-.092-.519-.276-.689-.178-.176-.415-.264-.711-.264-.31 0-.6.077-.87.233-.27.148-.464.296-.582.445l-.178.222H6Zm1.126 5.743a.68.68 0 0 1-.188-.498.68.68 0 0 1 .188-.498.614.614 0 0 1 .454-.19c.178 0 .33.063.455.19a.68.68 0 0 1 .187.498.68.68 0 0 1-.187.498.614.614 0 0 1-.455.191.614.614 0 0 1-.454-.19Z" fill="#FBFBFC"></path></svg>