<svg width="33px" height="33px" viewBox="0 0 30 33" fill="#5E6976" xmlns="http://www.w3.org/2000/svg"><path d="M8.425 19.155c-1.177 2.192-3.98 2.867-3.98 2.867s1.807 1.83 5.315-2.294c-1.162 2.36-2.797 3.375-2.797 3.375s2.635.56 3.39-2.104a.51.51 0 0 1 .488-.375c.28 0 .509.233.509.521v-4.493a1.707 1.707 0 0 1-1.175.453c-.64 0-1.617-.453-1.617-1.548 0-1.094 1.16-1.672 1.16-1.672s-5.316-3.683-7.446-9.042C1.107 6.598.508 8.504 6.06 13.423c-1.678-.044-4.648-2.867-5.422-4.014-1.033 4.74 4.777 5.645 5.4 5.734-1.593.331-3.787.043-6.003-2.25-.388 3.336 2.603 4.08 6.368 3.882-2.302 1.434-5.83.221-6.368-.22.474 2.866 3.76 2.907 7.164 1.764-1.722 1.213-3.141 1.434-5.594 1.655.882 1.3 3.593 1.61 6.821-.816v-.003ZM14.768 1.33a.438.438 0 0 0 .433-.442.438.438 0 0 0-.433-.444.438.438 0 0 0-.432.444c0 .244.194.443.432.443ZM23.204 24.89a.438.438 0 0 0-.432-.443c-.238 0-.432.2-.432.444s.194.443.432.443.432-.2.432-.443ZM11.338 4.185c.17 0 .307-.14.307-.314a.311.311 0 0 0-.307-.315.311.311 0 0 0-.307.315c0 .173.138.314.307.314Z" fill="currentColor"></path><path d="M6.687 6.63c.208.164.305.428.289.784l-.019.409.194-.357c.784-1.44.279-2.363.104-2.612-.117-.17-.233-.368-.193-.56.034-.16.177-.313.424-.46l.197-.109c.242-.135.653-.385 1.005-.53.37-.152.63.182.489.563-.1.272-.147.62-.147 1.002 0 .876.511 1.466 1.27 1.466h2.048c.948-.003 1.525-1.119 1.652-1.394h1.547c.128.274.706 1.391 1.652 1.394h2.048c.76 0 1.27-.588 1.27-1.466 0-.382-.045-.73-.146-1.002-.142-.381.119-.716.489-.563.353.145.763.395 1.005.53l.196.11c.247.146.39.3.424.46.04.19-.074.39-.193.56-.173.248-.68 1.172.104 2.61l.194.358-.019-.409c-.016-.356.082-.619.29-.783.575-.454 1.812-.06 1.824-.054l1.034.335-.962-.513c-.344-.182-1.232-.756-1.232-1.212 0-.176.041-.365.123-.56a.483.483 0 0 0-.439-.673c-.408-.029-.764-.125-1.057-.288l-.197-.11a34.44 34.44 0 0 0-.68-.373 1.811 1.811 0 0 1-.63-.538l-.003-.004a.504.504 0 0 0-.712-.116l-.014.01a.53.53 0 0 0-.091.75c.065.083.122.166.175.247.16.25.263.537.302.834.016.126.027.257.027.394 0 .774-.424 1.273-1.082 1.273h-.223v-.155s.498-.16.498-.755c0-.596-.444-.81-.754-.81 0 .9-.297 1.052-.297 1.052h-.525s-.297-.151-.297-1.052c-.308 0-.754.214-.754.81 0 .596.498.755.498.755v.155H17.2c-.721 0-1.058-.802-1.058-1.346v-.25c0-.124.1-.228.228-.359.215-.22.51-.525.51-1.143 0-.736-.48-1.518-1.366-1.518h-.094v.096c-.003 1.05-.247 1.536-.325 1.665h-.644c-.078-.129-.322-.614-.325-1.665v-.096h-.093c-.888 0-1.367.782-1.367 1.518 0 .618.295.921.51 1.143.128.131.229.235.229.359v.25c0 .542-.336 1.345-1.06 1.346h-.192v-.155s.498-.16.498-.755c0-.596-.444-.81-.754-.81 0 .9-.297 1.052-.297 1.052h-.525s-.297-.151-.297-1.052c-.308 0-.754.214-.754.81 0 .596.498.755.498.755v.155H10.3c-.658 0-1.082-.5-1.082-1.273 0-.137.01-.268.027-.394.04-.297.142-.583.302-.834a3.5 3.5 0 0 1 .176-.246.53.53 0 0 0-.092-.75l-.014-.01a.504.504 0 0 0-.711.115l-.003.004a1.825 1.825 0 0 1-.63.538c-.203.107-.43.233-.68.373l-.197.11c-.294.163-.65.26-1.058.288a.509.509 0 0 0-.38.195.483.483 0 0 0-.059.478c.082.196.123.385.123.56 0 .455-.89 1.029-1.232 1.212l-.962.513 1.034-.335c.012-.004 1.25-.399 1.824.054h.002Z" fill="currentColor"></path><path d="M18.206 4.185c.169 0 .307-.14.307-.314a.311.311 0 0 0-.307-.315.311.311 0 0 0-.307.315c0 .173.137.314.307.314ZM16.91 18.06a1.458 1.458 0 0 0-.37-.226c.071-.495.242-.589.476-.766-.416-.017-.608 0-.608 0a9.34 9.34 0 0 0-.314.654 1.72 1.72 0 0 0-1.174.293c0-.224.003-.438.007-.627h-.32c.003.189.006.403.007.627a1.734 1.734 0 0 0-1.174-.293 8.831 8.831 0 0 0-.315-.654s-.192-.015-.608 0c.235.177.405.271.476.766a1.42 1.42 0 0 0-.37.226c-.656.5-.656 1.535-.003 2.038.09.077.19.14.293.192-.204 1.407-.64 1.675-.64 1.675h.783s.093-.495.163-1.564c.23.058.473.066.707.026.306 1.337.71 2.158.73 2.197h.222c.019-.039.424-.86.73-2.197.234.04.476.032.706-.026.07 1.069.163 1.564.163 1.564h.784s-.437-.268-.64-1.675c.103-.052.202-.115.292-.192.653-.503.653-1.537-.002-2.038Zm-3.918 1.456c-.012.2-.029.384-.049.554-.709-.49-.685-1.589.073-2.039.026.33.02.797-.023 1.485Zm.238.704c.033-.56.06-1.261.064-2.114.207.452.386 1.06.515 1.76.025.137.053.27.08.398-.215.05-.443.04-.659-.044Zm1.285 1.368a12.731 12.731 0 0 1-.346-1.221c.157-.05.306-.124.437-.216-.005.48-.022.96-.092 1.437Zm.098-2.004c0 .072 0 .143-.002.215a1.298 1.298 0 0 1-.482.381c-.025-.118-.05-.237-.073-.363a10.445 10.445 0 0 0-.254-1.062l-.013-.041a9.344 9.344 0 0 0-.292-.85c.429-.05.859.15 1.117.491 0 .43 0 .872-.003 1.23h.002Zm.406 2.004c-.07-.478-.087-.957-.093-1.437.133.094.28.166.437.216-.11.477-.233.89-.346 1.221h.002Zm.46-1.771c-.023.125-.048.245-.073.363a1.286 1.286 0 0 1-.483-.381v-.215c-.002-.358-.005-.8-.003-1.23a1.25 1.25 0 0 1 1.116-.492 9.744 9.744 0 0 0-.292.85l-.012.041-.053.179a10.603 10.603 0 0 0-.202.884h.002Zm.165.447c.027-.13.055-.26.08-.398.13-.7.308-1.308.515-1.76.005.853.03 1.554.064 2.114a1.116 1.116 0 0 1-.66.044Zm.947-.194a9.991 9.991 0 0 1-.049-.554c-.042-.688-.049-1.156-.022-1.485.758.451.78 1.548.073 2.039h-.002ZM20.526 9.287h1.014v-.513c0-.726-.407-1.614-2.425-1.614h-3.22c1.122 1.197.53 2.159 0 2.885-.532.725-1.123 1.378-1.123 3.718 0-2.34-.592-2.993-1.123-3.718-.531-.726-1.123-1.687 0-2.885h-3.22c-2.018 0-2.426.888-2.426 1.614v.513h1.014c.829 0 3.49.737 3.49 3.599 0 1.075-.174 2.17-.576 2.977h5.683c-.404-.806-.577-1.902-.577-2.977 0-2.86 2.66-3.6 3.49-3.6ZM23.134 16.774c3.766.2 6.757-.546 6.369-3.882-2.216 2.294-4.411 2.58-6.003 2.25.624-.09 6.434-.994 5.4-5.735-.774 1.147-3.743 3.97-5.422 4.014 5.551-4.918 4.952-6.823 3.787-8.579-2.13 5.36-7.445 9.042-7.445 9.042s1.159.578 1.159 1.672c0 1.095-.976 1.548-1.616 1.548a1.7 1.7 0 0 1-1.176-.453v4.493c0-.288.228-.522.509-.522.225 0 .425.153.488.375.755 2.666 3.39 2.105 3.39 2.105s-1.635-1.015-2.797-3.375c3.508 4.125 5.315 2.294 5.315 2.294s-2.803-.675-3.98-2.867c3.227 2.427 5.939 2.117 6.82.816-2.452-.221-3.871-.44-5.593-1.655 3.403 1.145 6.692 1.102 7.164-1.765-.538.441-4.067 1.655-6.369.221v.003Z" fill="currentColor"></path><path d="M23.757 25.793a1.492 1.492 0 0 1-1.972 0 1.57 1.57 0 0 0-.52 1.41c.016.112-.066.215-.178.214l-.068-.001a2.294 2.294 0 0 1-.362-.05 1.582 1.582 0 0 1-.6-.259 1.314 1.314 0 0 1-.349-.384c-.414-.695.285-.785.285-2.196 0-1.287-.872-1.754-1.805-1.962v.599c0 .425-.337.77-.752.77H15.52a.762.762 0 0 0-.752.771.762.762 0 0 0-.752-.77H12.1a.762.762 0 0 1-.751-.771v-.599c-.933.208-1.805.676-1.805 1.962 0 1.411.7 1.501.284 2.196-.29.486-.818.697-1.493.699a.551.551 0 0 1-.367-.141.87.87 0 0 0-.921-.158l-2.455-2.517a.53.53 0 0 0-.433-.515 1.243 1.243 0 0 0-.244-1.36l-.4.41a.613.613 0 0 0-.398-.15.638.638 0 0 0-.63.647c0 .155.056.297.145.408l-.4.41c.358.367.89.451 1.327.25.041.25.25.439.503.444l2.478 2.54a.994.994 0 0 0-.024.088c-.11.58.321 1.09.869 1.09.091 0 .18-.016.262-.043l.639.655a.368.368 0 0 0 .531 0 .392.392 0 0 0 0-.545l-.616-.632c.006-.017.015-.032.021-.05a.54.54 0 0 1 .248-.294c.317-.181.754-.34 1.282-.289 1.122.105.98-.33.8-.794-.18-.462-.193-2.009 1.418-2.009 1.612 0 1.496 1.362 1.496 1.362s.09.607-.735.727c-.826.12-2.476 1.428-2.476 2.445 0 1.018.916 1.177.916 1.177s.026-2.34 2.398-2.882c-1.148 1.203-2.593 3.172-.555 3.781.09-1.89 1.29-3.054 1.29-3.054s-.385 1.488-.385 2.502c0 1.013.508 1.52.85 1.52.34 0 .849-.507.849-1.52 0-1.014-.385-2.502-.385-2.502s1.2 1.163 1.29 3.054c2.037-.607.593-2.578-.555-3.781 2.373.542 2.398 2.882 2.398 2.882s.916-.16.916-1.177c0-1.017-1.65-2.326-2.476-2.445-.826-.12-.736-.727-.736-.727s-.116-1.362 1.497-1.362c1.613 0 1.599 1.547 1.418 2.01-.18.462-.322.898.8.793.386-.036 1.166.157 1.684.334.128.044.246.112.352.199.308.252.712.383 1.147.326.695-.09 1.25-.677 1.317-1.392a1.576 1.576 0 0 0-.529-1.345l.001.001Z" fill="currentColor"></path></svg>