<svg width="64px" height="64px" viewBox="0 0 64 64" fill="none" xmlns="http://www.w3.org/2000/svg"><g clip-path="url(#pochta-rf_svg__a)"><path d="M50.156 0H13.844C6.198 0 0 6.198 0 13.844v36.312C0 57.802 6.198 64 13.844 64h36.312C57.802 64 64 57.802 64 50.156V13.844C64 6.198 57.802 0 50.156 0Z" fill="#fff"></path><path d="M13.844 1h36.312C57.25 1 63 6.75 63 13.844v36.312C63 57.25 57.25 63 50.156 63H13.844C6.75 63 1 57.25 1 50.156V13.844C1 6.75 6.75 1 13.844 1Z" stroke="#5C66DE" stroke-width="2"></path><g clip-path="url(#pochta-rf_svg__b)" fill="#1928DC"><path d="M15.444 16.717v14.208h-2.252v-12.16h-3.74v12.16h-2.25V16.717h8.242ZM19.504 30.37c-.683-.64-1.166-1.493-1.407-2.432-.362-1.28-.523-2.645-.523-4.01 0-1.408.161-2.774.523-4.14.241-.938.724-1.834 1.407-2.516.603-.555 1.327-.811 2.131-.811.804 0 1.528.299 2.131.81a5.312 5.312 0 0 1 1.407 2.518c.362 1.323.523 2.73.523 4.139 0 1.365-.16 2.73-.523 4.01a5.246 5.246 0 0 1-1.407 2.432c-.603.512-1.367.81-2.13.81-.765 0-1.529-.298-2.132-.81Zm.523-3.626c.08.64.322 1.194.643 1.749.12.17.241.299.402.384.161.085.362.128.523.17.563 0 1.005-.426 1.327-1.28.362-1.237.522-2.56.482-3.84 0-.98-.04-1.962-.2-2.943a4.17 4.17 0 0 0-.644-1.792 1.001 1.001 0 0 0-.402-.427c-.161-.085-.362-.17-.563-.17a.963.963 0 0 0-.563.17c-.16.085-.281.256-.402.427a5.586 5.586 0 0 0-.643 1.792c-.161.98-.242 1.962-.242 2.944 0 .938.04 1.92.242 2.858l.04-.042ZM33.014 16.717v5.461h-1.166c-.443 0-.845-.042-1.247-.256a1.47 1.47 0 0 1-.683-.81 3.943 3.943 0 0 1-.201-1.536v-2.859h-2.252v2.859a5.484 5.484 0 0 0 .965 3.456 3.448 3.448 0 0 0 2.935 1.237h1.609v6.656h2.251V16.717h-2.252.04ZM45.036 18.765h-2.613v12.16H40.17v-12.16h-2.613v-2.048h7.478v2.048ZM49.539 16.717h1.769c.724 0 1.488.128 2.09.555.564.384.966.938 1.247 1.621.322.81.483 1.664.563 2.517l1.045 9.472h-2.251l-.724-6.613h-3.78v6.656h-2.25V16.717h2.29Zm0 5.504h3.578l-.08-.81a6.976 6.976 0 0 0-.322-1.537 1.55 1.55 0 0 0-.643-.81c-.362-.171-.804-.299-1.206-.256h-1.327v3.413ZM9.654 33.741c.764 0 1.488.17 2.13.597a3.585 3.585 0 0 1 1.408 1.792c.362.939.523 1.92.523 2.944 0 .939-.12 1.878-.483 2.774a4.245 4.245 0 0 1-1.166 1.749 2.146 2.146 0 0 1-1.286.597c-.242 0-.483 0-.724-.128-.241-.085-.442-.256-.603-.426v4.352H7.2V33.784h2.453v-.043Zm-.08 7.381c.04.256.16.47.321.683.04.085.12.128.201.17.08 0 .16.043.241.086.201 0 .362-.085.523-.256.201-.213.362-.512.442-.81.12-.47.201-.982.161-1.451 0-1.323-.16-2.262-.442-2.816a1.311 1.311 0 0 0-.563-.598c-.241-.128-.483-.213-.764-.213h-.241v4.139c0 .384 0 .725.12 1.109v-.043ZM16.167 47.394c-.683-.64-1.166-1.493-1.407-2.432-.362-1.28-.523-2.645-.523-4.01 0-1.408.161-2.774.523-4.139.241-.939.724-1.835 1.407-2.517.603-.555 1.327-.81 2.131-.81.804 0 1.528.298 2.131.81a5.312 5.312 0 0 1 1.407 2.517c.362 1.323.523 2.73.523 4.139 0 1.365-.12 2.73-.482 4.01a5.245 5.245 0 0 1-1.408 2.432c-.603.512-1.367.811-2.13.811-.764 0-1.528-.299-2.132-.81h-.04Zm.563-3.584c.08.598.322 1.195.643 1.707.121.17.242.299.402.384.161.085.322.128.523.17.563 0 1.005-.426 1.287-1.28.362-1.237.523-2.517.482-3.84 0-.98-.04-1.962-.2-2.943a4.17 4.17 0 0 0-.644-1.792 1 1 0 0 0-.402-.427c-.16-.085-.362-.17-.563-.17a.963.963 0 0 0-.563.17c-.16.085-.281.256-.402.427a4.908 4.908 0 0 0-.603 1.834c-.16.982-.241 1.963-.241 2.944 0 .94.08 1.92.24 2.816h.041ZM23.847 36.94c.563-1.066 1.407-1.92 2.453-2.431a8.585 8.585 0 0 1 3.86-.768v2.133c-1.609 0-2.815.427-3.66 1.28-.844.854-1.246 2.134-1.246 3.84 0 1.707.402 2.859 1.247 3.67.844.81 2.05 1.194 3.659 1.194v2.09c-2.292 0-4.061-.596-5.268-1.748-1.246-1.152-1.85-2.902-1.85-5.248a8.549 8.549 0 0 1 .845-4.011h-.04ZM31.326 36.941c.562-1.067 1.407-1.92 2.452-2.432 1.206-.555 2.533-.853 3.86-.81v2.133c-1.568 0-2.814.426-3.659 1.28-.844.853-1.246 2.133-1.246 3.84 0 1.706.402 2.858 1.246 3.669.845.81 2.05 1.195 3.659 1.195v2.133c-2.292 0-4.06-.597-5.267-1.75-1.247-1.151-1.85-2.9-1.85-5.247a8.55 8.55 0 0 1 .845-4.011h-.04ZM40.934 33.741v5.077l3.78-3.413 2.251-2.005v14.549h-2.251v-9.685l-3.78 3.413v6.272h-2.251V33.741h2.251ZM50.222 33.741v5.077l3.78-3.413 2.211-2.005v14.506h-2.252v-9.685l-3.779 3.413v6.272h-2.211V33.698h2.251v.043Z"></path></g></g><defs><clipPath id="pochta-rf_svg__a"><path fill="#fff" d="M0 0h64v64H0z"></path></clipPath><clipPath id="pochta-rf_svg__b"><path fill="#fff" transform="translate(7 16.333)" d="M0 0h49.455v32H0z"></path></clipPath></defs></svg>