<svg width="48px" height="48px" viewBox="0 0 48 48" fill="none" xmlns="http://www.w3.org/2000/svg"><rect width="48" height="48" rx="16" fill="#01D1B2" fill-opacity="0.3"></rect><g clip-path="url(#tickets-green_svg__a)"><path fill-rule="evenodd" clip-rule="evenodd" d="M19.192 11.9a1 1 0 0 1 1.415 0l14.142 14.142a1 1 0 0 1 0 1.414l-2.122 2.122a3 3 0 0 0-4.242 4.242l-2.122 2.121a1 1 0 0 1-1.414 0L10.707 21.8a1 1 0 0 1 0-1.414l2.121-2.121a3 3 0 1 0 4.243-4.243l2.121-2.121Z" fill="#49C7BF"></path><path fill-rule="evenodd" clip-rule="evenodd" d="M31.192 11.56a1 1 0 0 0-1.257-.647l-1.792.573a2.16 2.16 0 0 1-2.813 2.683l9.844 9.844-3.982-12.452Zm-7.213 1.258.08.081a2.292 2.292 0 0 1-.033-.097l-.047.016Z" fill="#40A8A1"></path><path d="M19.356 20.875a.41.41 0 0 1 .495-.499l1.973.488a.41.41 0 0 0 .317-.052l1.716-1.087a.41.41 0 0 1 .628.316l.146 2.027a.41.41 0 0 0 .147.286l1.564 1.296a.41.41 0 0 1-.107.695l-1.882.765a.41.41 0 0 0-.227.228l-.749 1.889a.41.41 0 0 1-.694.113l-1.309-1.554a.41.41 0 0 0-.287-.145l-2.028-.13a.41.41 0 0 1-.322-.624l1.074-1.726a.41.41 0 0 0 .049-.318l-.504-1.968Z" fill="#A9E9E4"></path></g><defs><clipPath id="tickets-green_svg__a"><path fill="#fff" transform="translate(8 8)" d="M0 0h32v32H0z"></path></clipPath></defs></svg>