<svg width="60px" height="44px" viewBox="0 0 65 21" fill="none" xmlns="http://www.w3.org/2000/svg"><mask id="visa_svg__a" style="mask-type:luminance" maskUnits="userSpaceOnUse" x="0" y="0" width="65" height="21"><path d="M33.61 6.816c-.037 2.904 2.588 4.525 4.565 5.489 2.032.989 2.715 1.623 2.707 2.507-.016 1.353-1.621 1.95-3.123 1.973-2.622.04-4.146-.707-5.357-1.274l-.944 4.419c1.215.56 3.466 1.049 5.8 1.07 5.48 0 9.064-2.704 9.083-6.898.022-5.322-7.361-5.617-7.31-7.995.017-.722.705-1.491 2.213-1.687.747-.099 2.808-.175 5.144.901l.917-4.274C46.048.589 44.434.15 42.423.15c-5.157 0-8.784 2.741-8.813 6.665ZM56.116.52c-1 0-1.843.584-2.22 1.48L46.07 20.685h5.475l1.09-3.01h6.69l.632 3.01h4.825L60.572.519h-4.456Zm.766 5.448 1.58 7.573h-4.327l2.747-7.573ZM26.972.519l-4.316 20.167h5.217L32.187.519H26.97Zm-7.719 0-5.43 13.726-2.197-11.67C11.368 1.27 10.351.518 9.22.518H.343l-.124.586C2.04 1.5 4.112 2.138 5.366 2.82c.768.417.987.782 1.239 1.772l4.16 16.094h5.514L24.732.519h-5.479Z" fill="#fff"></path></mask><g mask="url(#visa_svg__a)"><path d="M-6.555 2.64 57.06-20.786l14.472 39.298L7.918 41.938" fill="#1534CC"></path></g></svg>