<svg width="auto" height="height" viewBox="0 0 206 54" fill="none" xmlns="http://www.w3.org/2000/svg"><path d="M47.157 13.219 60.51 6.656c-11.404 2.809-31.24 9.441-47.589 19.837C4.776 31.675-.62 37.877.872 40.343c1.492 2.465 10.187 1.255 22.46-7.088.8-2.034 2.65-6.692 2.65-6.692s2.144 1.72 4.836 3.661c2.66-2.062 10.06-7.193 17.063-12.11-1.389.018-2.873.208-4.687.296l9.283-5.46-5.32.269Z" fill="url(#nationalLotteryFooter_svg__a)"></path><path d="m60.747 2.239 1.158-.603.393-1.172.778.737 1.547-.38-.868 1.316.719 1.455-1.674-.361-1.207 1.066.085-1.497-.931-.561Z" fill="url(#nationalLotteryFooter_svg__b)"></path><path d="m50.545 16.352 1.158-.603.394-1.177.778.742 1.547-.38-.868 1.316.719 1.456-1.674-.362-1.208 1.066.086-1.497-.932-.56Z" fill="url(#nationalLotteryFooter_svg__c)"></path><path d="m32.86 8.287 2.339-1.27.755-2.414 1.615 1.473 3.14-.834-1.72 2.716 1.52 2.939-3.42-.668-2.424 2.225.122-3.059-1.927-1.108Z" fill="url(#nationalLotteryFooter_svg__d)"></path><path d="m52.473 2.345 1.692-.727.67-1.618 1.026 1.122 2.217-.376-1.353 1.766.873 2.128-2.325-.682-1.805 1.381.267-2.104-1.262-.89Z" fill="url(#nationalLotteryFooter_svg__e)"></path><path d="M33.014 37.65c.135-.052.284.087.275.259-.036.779-.33 2.596-2.248 3.328-1.737.658-3.203-.468-3.782-1.02-.126-.12-.104-.338.037-.394l5.718-2.174Z" fill="#E51E73"></path><path d="m27.297 39.819-11.87-2.67c-5.333 2.952-10.775 4.83-13.48 3.977l-.507-.204c.488.357.977.746 1.457 1.154 1.664 1.497 4.61 4.64 8.033 10.53.018.042.041.08.06.12.053.117.121.223.198.325 1.647 2.193 8.147.39 14.657-3.402.67-2.16 1.262-4.463 1.447-4.593.326-.222 0-5.237 0-5.237h.005Z" fill="url(#nationalLotteryFooter_svg__f)"></path><path d="m38.64 28.477-1.385 3.319-1.574 3.772-.027.07a.761.761 0 0 0 .081.626l4.017 6.544a.746.746 0 0 1 0 .797.716.716 0 0 1-.683.348l-7.491-.719a.685.685 0 0 0-.348.056.704.704 0 0 0-.281.213l-4.804 5.928a.772.772 0 0 1-.28.214.733.733 0 0 1-.995-.528L23.2 41.58a.748.748 0 0 0-.443-.533l-6.985-2.878a.756.756 0 0 1-.461-.71c0-.245.118-.49.357-.635l6.46-3.94a.766.766 0 0 0 .353-.598l.488-7.707c0-.093.028-.176.06-.25a.736.736 0 0 1 .393-.394.717.717 0 0 1 .764.13l5.66 5.103c.18.162.429.227.66.166l7.287-1.886c.584-.148 1.086.454.846 1.029Z" fill="url(#nationalLotteryFooter_svg__g)"></path><path opacity="0.2" d="m23.016 24.329-.194 8.254-.52.135a.766.766 0 0 0 .167-.431l.488-7.708a.84.84 0 0 1 .059-.25ZM23.593 41.13l1.904 8.566a.733.733 0 0 1-.637-.58l-1.67-7.536a.748.748 0 0 0-.443-.533l-6.984-2.878a.756.756 0 0 1-.462-.71l7.821 3.12a.756.756 0 0 1 .471.551ZM32.213 42.572l7.532 1.038a.715.715 0 0 1-.683.348l-7.491-.719a.685.685 0 0 0-.349.056.704.704 0 0 0-.28.213l.326-.5a.956.956 0 0 1 .945-.436Z" fill="#472918"></path><path opacity="0.5" d="m38.628 28.477-1.384 3.319.846-3.528c.045-.194-.127-.37-.317-.32l-7.269 2.04a.803.803 0 0 1-.755-.18l-5.84-5.312-.787-.348a.73.73 0 0 1 .285-.213.717.717 0 0 1 .764.13l5.659 5.103c.181.162.43.227.66.166l7.288-1.886c.588-.148 1.09.454.85 1.029ZM39.82 43.466l-4.33-6.248a.938.938 0 0 1-.108-.839l.267-.741a.762.762 0 0 0 .081.626l4.018 6.544a.763.763 0 0 1 .072.658Z" fill="#fff"></path><path d="M23.462 24.064a.567.567 0 0 1 .62.107l5.659 5.103a.842.842 0 0 0 .787.195l7.287-1.887a.567.567 0 0 1 .597.195.62.62 0 0 1 .095.64l-1.384 3.318-1.579 3.782-.027.07v.009a.91.91 0 0 0 .095.742l4.017 6.54c.1.166.122.356.054.537a.587.587 0 0 1-.61.399l-7.487-.714a.838.838 0 0 0-.412.065.837.837 0 0 0-.334.255l-4.804 5.928a.564.564 0 0 1-.231.171.623.623 0 0 1-.294.042.587.587 0 0 1-.516-.473l-1.669-7.536a.875.875 0 0 0-.525-.63l-6.984-2.879a.61.61 0 0 1-.376-.58c0-.217.11-.402.29-.514l6.46-3.94a.72.72 0 0 0 .199-.17l.022-.029a.911.911 0 0 0 .2-.51l.488-7.707a.5.5 0 0 1 .05-.204.631.631 0 0 1 .086-.144.509.509 0 0 1 .226-.18Zm-.05-.13a.717.717 0 0 0-.393.394.748.748 0 0 0-.06.25l-.488 7.709a.735.735 0 0 1-.167.43.722.722 0 0 1-.186.168l-6.46 3.94a.741.741 0 0 0-.357.634c0 .292.154.58.462.71l6.984 2.878a.748.748 0 0 1 .443.533l1.67 7.536a.728.728 0 0 0 .637.58c.118.013.245 0 .358-.052a.724.724 0 0 0 .28-.213l4.804-5.928a.736.736 0 0 1 .28-.213.737.737 0 0 1 .35-.056l7.49.719a.716.716 0 0 0 .683-.348.76.76 0 0 0 0-.797l-4.017-6.545a.764.764 0 0 1-.081-.625l.027-.07 1.574-3.773 1.384-3.318c.24-.575-.267-1.178-.85-1.025L30.49 29.34c-.23.06-.48 0-.66-.167l-5.659-5.108a.708.708 0 0 0-.76-.13Z" fill="#2f41b0" opacity="0.1"></path><path d="M23.509 24.194a.439.439 0 0 1 .48.084l5.658 5.103a.99.99 0 0 0 .91.227l7.287-1.887a.444.444 0 0 1 .462.153.47.47 0 0 1 .072.496l-1.384 3.319-1.575 3.773h-.004v.009l-.032.07h-.004v.009c-.09.287-.05.602.108.857l4.017 6.54c.077.13.095.273.041.417a.412.412 0 0 1-.036.079h-.005v.01a.474.474 0 0 1-.217.184.43.43 0 0 1-.217.033l-7.486-.718a.952.952 0 0 0-.48.074 1.06 1.06 0 0 0-.389.292l-4.804 5.928a.452.452 0 0 1-.403.167.46.46 0 0 1-.398-.367l-1.669-7.536a1.017 1.017 0 0 0-.606-.732L15.85 37.9a.466.466 0 0 1-.289-.445c0-.167.081-.311.222-.4l6.46-3.939a.945.945 0 0 0 .207-.171l.046-.06c.135-.167.212-.371.23-.59l.489-7.707a.454.454 0 0 1 .104-.269.576.576 0 0 1 .185-.125m-.104-.26a.718.718 0 0 0-.393.394.748.748 0 0 0-.059.25l-.489 7.709a.735.735 0 0 1-.167.43.722.722 0 0 1-.185.168l-6.46 3.94a.741.741 0 0 0-.357.634c0 .292.153.58.461.71l6.984 2.878a.749.749 0 0 1 .444.533l1.669 7.536a.728.728 0 0 0 .638.58c.117.013.244 0 .357-.052a.724.724 0 0 0 .28-.213l4.805-5.928a.736.736 0 0 1 .28-.213.736.736 0 0 1 .348-.056l7.491.719a.717.717 0 0 0 .683-.348.76.76 0 0 0 0-.797l-4.017-6.545a.764.764 0 0 1-.08-.625l.026-.07 1.574-3.773 1.385-3.318c.24-.575-.267-1.178-.85-1.025L30.48 29.34c-.231.06-.48 0-.66-.167l-5.66-5.108a.708.708 0 0 0-.76-.13Z" fill="#2f41b0" opacity="0.1"></path><path d="M32.368 37.673c.136-.051.285.093.276.264-.045.779-.366 2.59-2.298 3.29-1.746.636-3.198-.518-3.768-1.08-.122-.12-.1-.342.04-.393l5.75-2.081ZM25.476 35.786a1.32 1.32 0 0 1-.678 1.724 1.27 1.27 0 0 1-1.683-.695 1.32 1.32 0 0 1 .678-1.724 1.273 1.273 0 0 1 1.683.695ZM33.354 32.95s-.004 0 0 0c-.574-.659-1.37-.603-1.43-.598-1.908.171-2.189 2.21-2.193 2.234-.005.023 0 .07.009.092a.214.214 0 0 0 .199.144.179.179 0 0 0 .068-.014.2.2 0 0 0 .122-.12c.452-1.113 1.248-1.377 1.818-1.4h.077c.606-.023 1.014.093 1.032.093.009.004.031.014.04.014.005 0 .01 0 .014.004a.265.265 0 0 0 .253-.097.273.273 0 0 0-.009-.352Z" fill="#fff"></path><path fill-rule="evenodd" clip-rule="evenodd" d="M91.171 6.513c.052-.158.052-.31.052-.417C91.223 4.998 89.828 4 87.62 4c-.59 0-1.564.158-2.745.474-.4.194-.681.252-1.744.469l-.515.105c-1.02.266-2.111.563-3.21.862-3.653.995-7.407 2.017-9.063 2.017-.138 0-.33-.066-.52-.13-.188-.065-.374-.129-.506-.129-.214 0-.266.05-.266.417 0 .89.487 3.402 1.993 3.402.754 0 2.62-.667 4.944-1.497 1.471-.526 3.126-1.118 4.798-1.647C73.731 20.54 61.133 37.51 58.498 37.51c-.598 0-.863-1.206-.863-1.938 0-2.513 1.778-6.597 4.361-9.533.052-.05.052-.108.052-.158 0-.625-2.472-1.83-3.66-1.83-1.565 0-5.765 5.34-5.765 12.411 0 2.721 2.31 5.183 5.543 5.183 5.44 0 18.517-21.945 25.034-34.092l2.532-.574-.182.373c-1.651 3.372-11.664 23.82-11.664 32.204 0 5.916 3.344 9.426 4.525 9.426.324 0 .324-.208.324-.574 0-.206-.03-.525-.073-.982-.109-1.167-.303-3.24-.303-6.664 0-8.309 7.1-22.577 10.762-29.935 1.046-2.102 1.81-3.64 2.05-4.314Zm43.639 3.539c.31.452.738.804 1.299 1.048.561.244 1.21.366 1.941.359.746 0 1.395-.122 1.956-.366.553-.245.989-.596 1.292-1.049.302-.452.457-.976.457-1.579v-.043c0-.603-.155-1.127-.457-1.58-.303-.452-.731-.796-1.292-1.047-.554-.252-1.218-.374-1.956-.374s-1.38.122-1.941.374c-.561.25-.989.603-1.299 1.055-.302.46-.457.983-.457 1.58v.042c0 .596.147 1.127.457 1.58Zm5.085-1.558c0 .445-.155.775-.45.99-.295.216-.76.324-1.387.324-.613 0-1.071-.108-1.373-.323-.303-.216-.458-.546-.458-.991v-.086c0-.438.155-.768.465-.991.31-.223.768-.337 1.366-.337 1.225 0 1.837.445 1.837 1.328v.086ZM99.483 5.536v2.11h2.635v-2.11h1.83v5.815h-1.83V9.24h-2.635v2.11h-1.83V5.536h1.83Zm13.866 5.55v.265h-1.786l-.392-.955h-2.627l-.391.955h-1.786v-.266l2.48-5.549h2.022l2.48 5.55Zm-2.79-2.162-.701-1.694-.701 1.694h1.402Zm12.244 3.604v-2.77h-.916V5.535h-1.83v4.221h-2.45v-4.22h-1.831v5.814h5.196v1.177h1.831Zm4.351-6.992V8.89l2.664-3.353h1.83v5.815h-1.8V7.998l-2.665 3.353h-1.83V5.536h1.801Zm19.127 0v2.11h2.635v-2.11h1.831v5.815h-1.831V9.24h-2.635v2.11h-1.83V5.536h1.83Zm13.866 5.815v-.266l-2.479-5.549h-2.023l-2.479 5.55v.265h1.786l.391-.955h2.627l.391.955h1.786Zm-3.49-4.12.701 1.693h-1.403l.702-1.694Zm12.065 4.12h-1.83V7.13h-2.008l-.044 1.708c-.022.819-.221 1.443-.59 1.874-.369.424-.908.639-1.617.639h-.568V9.757h.222c.31 0 .531-.079.671-.244.133-.165.207-.43.214-.811l.074-3.166h5.476v5.815Zm4.833-4.027V5.536h-1.838v5.808h3.794c.79 0 1.38-.165 1.793-.503.406-.337.613-.825.613-1.471v-.108c0-.632-.207-1.113-.613-1.443-.405-.33-1.003-.495-1.793-.495h-1.956Zm2.495 2.046c0 .15-.044.258-.14.33-.089.072-.237.107-.443.1h-1.912v-.947h1.912c.391 0 .583.136.583.409v.108Zm6.397-3.834v2.11h2.635v-2.11h1.831v5.815h-1.831V9.24h-2.635v2.11h-1.83V5.536h1.83Zm13.869 5.815v-.266l-2.479-5.549h-2.023l-2.479 5.55v.265h1.786l.391-.955h2.627l.391.955h1.786Zm-3.491-4.12.702 1.693h-1.403l.701-1.694Zm12.09-1.688v5.808h-1.83V9.448h-.546l-1.816 1.903h-2.066v-.266l1.712-1.694c-.546-.093-.974-.301-1.284-.617a1.618 1.618 0 0 1-.465-1.178V7.51c0-.617.214-1.098.634-1.443.428-.351 1.019-.524 1.772-.524h3.889Zm-4.428 2.046c0 .287.192.438.583.438h2.015V7.08h-2.015c-.391 0-.583.143-.583.423v.086ZM97.091 25.522c0 .108-.052.158-.11.158l-.035.012c-.58.204-1.164.41-1.685.72.967.474 1.778 1.572 1.778 2.096 0 1.414-1.026 4.035-2.48 6.547.163.316.377.524.753.524 1.638 0 4.295-1.955 6.68-3.708h.001v-.001c.432-.318.855-.629 1.261-.92 1.454-2.51 2.798-4.896 3.192-6.369.123-.485.132-.824.139-1.07.007-.283.011-.44.186-.552.494 0 3.402.416 3.402 1.88 0 1.319-2.222 4.507-3.216 5.933h-.001v.001l-.281.406c.401-.335 1.064-.976 1.849-1.735 2.159-2.087 5.245-5.07 6.387-5.07 1.129 0 2.694.624 2.694 1.205 0 1.052-1.165 3.753-2.063 5.832-.351.815-.662 1.535-.845 2.022.208-.164.698-.803 1.371-1.68 2.124-2.768 6.066-7.904 8.644-7.904.864 0 2.908 1.415 2.908 1.989 0 1.49-2.386 5.53-4.271 8.72-1.23 2.082-2.246 3.802-2.246 4.216 0 .108.052.208.052.208.654 0 6.327-3.843 10.568-6.8 2.435-4.217 6.772-7.809 7.952-7.809.539 0 1.72.575 2.532 1.049 0-.575 0-.941.324-.941.65 0 2.908 1.522 2.908 2.462 0 4.343-7.321 7.538-9.742 7.538-.266 0-.701-.05-1.026-.158-.804 1.465-1.343 3.037-1.343 4.293 0 .524.325.732.804.732 3.661 0 14.318-6.963 16.533-9.06a.91.91 0 0 1 .271-.182c1.379-2.444 2.455-4.325 3.292-5.79 2.85-4.987 2.938-5.141 2.861-6.238 0-.116-.01-.256-.019-.397-.021-.307-.042-.619.034-.687.044-.043.155-.1.369-.1 1.026 0 3.284.94 3.395 2.72 0 .069-.006.09-.014.12-.011.04-.025.097-.038.296-.112.664-.548 1.268-1.382 2.427-1.143 1.586-3.033 4.211-5.866 9.447 2.37-1.938 4.311-3.719 6.296-5.815l.077-.085c.789-.874 1.719-1.903 2.24-1.903 1.13 0 3.174 1.306 3.233 2.304 0 .158 0 .258-.052.366-.35.656-.74 1.38-1.148 2.136-2.1 3.896-4.667 8.657-4.667 9.486 0 .05.051.108.11.108.809 0 4.807-3.01 8.128-5.509h.001l.997-.75c2.428-4.243 6.801-7.869 7.987-7.869.539 0 1.72.575 2.531 1.049 0-.575 0-.941.325-.941.65 0 2.908 1.522 2.908 2.462 0 4.343-7.321 7.538-9.742 7.538-.266 0-.701-.05-1.026-.158-.804 1.465-1.343 3.037-1.343 4.293 0 .524.325.732.804.732 2.927 0 10.327-4.452 14.308-7.308.911-1.682 1.943-2.764 2.558-2.764 1.388.022 2.79.754 2.79 1.22 0 .188-.133.32-.275.461a1.37 1.37 0 0 0-.264.322c-1.402 2.305-3.07 5.657-3.07 8.062 0 .474.162.574.487.574 1.506 0 4.738-2.197 7.75-5.082-1.078-.474-2.045-1.78-2.045-3.353 0-4.4 4.089-9.691 6.783-9.691 1.83 0 3.609 1.206 3.609 2.879 0 1.672-1.72 4.5-4.037 7.437.599-.313 1.217-.684 1.754-1.006.719-.431 1.292-.775 1.478-.775.753 0 2.694.94 2.694 1.673-.137.335-.416.875-.77 1.56-1.309 2.53-3.643 7.045-3.643 10.587 0 1.417.669 1.977 1.003 2.256.111.092.185.154.185.206 0 .258-.428.366-1.026.366-1.292 0-3.55-1.73-3.55-4.085 0-3.352 2.583-8.327 3.55-10.158-.753.524-2.531 1.73-4.037 2.147-3.771 4.135-8.185 7.803-9.905 7.803-1.505 0-3.874-1.522-3.874-3.56 0-1.66.333-3.287.826-4.723-3.89 3.279-9.599 7.364-12.799 7.364-2.421 0-4.576-1.888-4.576-4.242 0-.797.142-1.615.392-2.435-3.234 3.004-7.193 6.297-8.463 6.297-1.506 0-3.174-1.623-3.174-2.829 0-1.249 1.585-4.33 2.932-6.948 1.021-1.986 1.906-3.705 1.858-4.157-.701 0-6.834 6.497-11.307 12.52-2.48 4.766-4.251 8.693-4.849 11.837l-.06.271c-.127.57-.206.919-.206 1.144 0 .086.016.155.03.218a.651.651 0 0 1 .022.148c0 .158-.214.416-.701.416-1.026 0-2.96-1.206-3.07-2.879-.106-1.905 3.69-9.055 9.084-18.673-3.538 3.29-11.122 9.312-15.007 9.312-2.421 0-4.576-1.888-4.576-4.242 0-.9.181-1.828.495-2.754-3.697 3.273-8.538 7.147-9.76 7.147-1.778 0-3.284-.998-3.284-2.304 0-1.461 1.61-4.349 3.069-6.965 1.207-2.165 2.311-4.145 2.311-4.974-.014-.013-.024-.027-.034-.041-.026-.036-.048-.066-.128-.066-1.343 0-7.107 6.18-10.657 12.203-.377.682-.805 1.415-1.078 1.415-.701 0-2.694-.998-2.694-1.989 0-.41.912-2.22 1.982-4.341 1.516-3.007 3.347-6.64 3.347-7.805 0-.05-.052-.108-.163-.108-.538 0-7.432 7.387-9.69 11.63a28.042 28.042 0 0 0-1.276 2.776c-.354.865-.555 1.359-.82 1.359-1.026 0-2.856-1.257-2.856-2.463 0-1.325 1.361-3.91 2.944-6.677-2.246 1.968-5.202 4.107-7.244 4.107-.428 0-.863-.158-1.24-.524-1.778 2.563-3.77 4.609-5.276 4.609-2.207 0-4.628-1.78-4.628-3.977 0-5.391 7.159-14.45 9.801-14.45 2.052 0 3.934 1.73 3.934 2.196Zm-4.037 2.304c-3.713 3.037-6.14 7.961-6.14 10.998 0 .782.213.998.7.998.967 0 2.96-1.989 4.576-4.4a7.294 7.294 0 0 1-.265-1.939c0-1.88.487-4.135 1.129-5.657Zm19.002-7.885c-.315-.073-.547-.126-.702-.126-.155 0-.266.05-.266.158 0 .624 2.148 2.67 5.919 2.67 3.986 0 10.229-3.402 10.229-3.927 0-.366-.11-.473-.376-.473-.065 0-.392.088-.912.229-2.01.544-6.896 1.867-10.66 1.867-1.508 0-2.56-.243-3.232-.398Zm30.047 6.579a8.4 8.4 0 0 0-1.719.84c-1.181.732-3.55 3.352-5.226 6.13 1.831-.682 4.739-2.196 6.141-4.5a5.686 5.686 0 0 0 .804-2.47Zm37.095 0a8.428 8.428 0 0 0-1.72.84c-1.18.732-3.55 3.352-5.225 6.13 1.83-.682 4.738-2.196 6.141-4.5a5.686 5.686 0 0 0 .804-2.47Zm23.095-1.623c0 2.046-2.103 5.133-4.738 7.962-.428-.108-.753-.474-.753-1.049 0-3.086 3.284-7.645 4.465-7.645.539 0 1.026.316 1.026.732Z" fill="currentColor"></path><defs><linearGradient id="nationalLotteryFooter_svg__a" x1="63.817" y1="6.169" x2="0.015" y2="37.964" gradientUnits="userSpaceOnUse"><stop stop-color="#00E3F9"></stop><stop offset="0.37" stop-color="#1CD5F6"></stop><stop offset="0.43" stop-color="#22D2F5"></stop><stop offset="0.51" stop-color="#20CDF6"></stop><stop offset="0.6" stop-color="#1AC0F7"></stop><stop offset="0.69" stop-color="#11A9FA"></stop><stop offset="0.79" stop-color="#0489FE"></stop><stop offset="0.81" stop-color="#0080FF"></stop><stop offset="0.9" stop-color="#0063FF"></stop><stop offset="1" stop-color="#0040FF"></stop></linearGradient><linearGradient id="nationalLotteryFooter_svg__b" x1="60.747" y1="2.382" x2="64.623" y2="2.382" gradientUnits="userSpaceOnUse"><stop stop-color="#00FF30"></stop><stop offset="0.19" stop-color="#00F930"></stop><stop offset="0.44" stop-color="#00EA2F"></stop><stop offset="0.72" stop-color="#00D02D"></stop><stop offset="1" stop-color="#00AD2B"></stop></linearGradient><linearGradient id="nationalLotteryFooter_svg__c" x1="50.545" y1="16.491" x2="54.422" y2="16.491" gradientUnits="userSpaceOnUse"><stop stop-color="#0080FF"></stop><stop offset="0.38" stop-color="#007FFF"></stop><stop offset="0.71" stop-color="#005FFF"></stop><stop offset="1" stop-color="#0040FF"></stop></linearGradient><linearGradient id="nationalLotteryFooter_svg__d" x1="32.86" y1="8.528" x2="40.708" y2="8.528" gradientUnits="userSpaceOnUse"><stop stop-color="#F7448A"></stop><stop offset="0.22" stop-color="#F53E89"></stop><stop offset="0.49" stop-color="#EE2F86"></stop><stop offset="0.8" stop-color="#E31582"></stop><stop offset="1" stop-color="#DA007E"></stop></linearGradient><linearGradient id="nationalLotteryFooter_svg__e" x1="51.329" y1="5.789" x2="57.958" y2="1.305" gradientUnits="userSpaceOnUse"><stop stop-color="#00E3F9"></stop><stop offset="0.37" stop-color="#1CD5F6"></stop><stop offset="0.43" stop-color="#22D2F5"></stop><stop offset="0.55" stop-color="#20CDF6"></stop><stop offset="0.68" stop-color="#1AC0F7"></stop><stop offset="0.82" stop-color="#11A9FA"></stop><stop offset="0.96" stop-color="#0489FE"></stop><stop offset="1" stop-color="#0080FF"></stop></linearGradient><linearGradient id="nationalLotteryFooter_svg__f" x1="1.44" y1="45.575" x2="27.442" y2="45.575" gradientUnits="userSpaceOnUse"><stop stop-color="#0080FF"></stop><stop offset="0.05" stop-color="#0489FE"></stop><stop offset="0.22" stop-color="#11A9FA"></stop><stop offset="0.39" stop-color="#1AC0F7"></stop><stop offset="0.56" stop-color="#20CDF6"></stop><stop offset="0.7" stop-color="#22D2F5"></stop><stop offset="0.74" stop-color="#1CD5F6"></stop><stop offset="1" stop-color="#00E3F9"></stop></linearGradient><linearGradient id="nationalLotteryFooter_svg__g" x1="5.911" y1="78.808" x2="35.401" y2="28.954" gradientUnits="userSpaceOnUse"><stop stop-color="#00E3F9"></stop><stop offset="0.37" stop-color="#1CD5F6"></stop><stop offset="0.43" stop-color="#22D2F5"></stop><stop offset="0.51" stop-color="#20CDF6"></stop><stop offset="0.6" stop-color="#1AC0F7"></stop><stop offset="0.69" stop-color="#11A9FA"></stop><stop offset="0.79" stop-color="#0489FE"></stop><stop offset="0.81" stop-color="#0080FF"></stop><stop offset="0.9" stop-color="#0063FF"></stop><stop offset="1" stop-color="#0040FF"></stop></linearGradient></defs></svg>